<?xml version="1.0" encoding="utf-8" ?>
<svg xmlns="http://www.w3.org/2000/svg" xmlns:xlink="http://www.w3.org/1999/xlink" width="240" height="120">
	<path fill="#202221" transform="scale(0.117188 0.117188)" d="M353.161 551.961L354.421 550.137C359.942 551.536 364.767 565.385 368.177 570.276C413.672 635.511 511.917 666.749 586.924 679.835C654.69 691.658 723.865 693.98 792.53 693.433Q808.634 693.359 824.734 693.019Q840.835 692.679 856.928 692.073Q873.02 691.467 889.101 690.595Q905.181 689.723 921.245 688.585Q937.309 687.448 953.352 686.045Q969.395 684.642 985.412 682.975Q1001.43 681.307 1017.42 679.375Q1033.41 677.443 1049.36 675.247Q1065.31 673.051 1081.23 670.592Q1097.14 668.132 1113.02 665.41Q1128.89 662.689 1144.71 659.705Q1160.54 656.721 1176.31 653.476Q1192.09 650.231 1207.8 646.726Q1223.52 643.221 1239.18 639.457Q1254.84 635.693 1270.43 631.67Q1286.03 627.648 1301.55 623.368C1366.64 605.436 1431.53 584.341 1492.48 555.045C1521.33 541.182 1549.65 524.919 1575.59 506.135C1586.63 498.133 1596.69 488.77 1607.83 480.935C1606.92 487.743 1590.23 499.738 1585.05 503.699C1429.46 622.561 1095.56 682.147 899.31 694.258C805.376 700.055 708.477 699.399 615.213 686.785C529.32 675.168 422.894 649.157 367.81 576.779C362.106 569.283 356.678 560.72 353.161 551.961Z"/>
	<path fill="#202221" transform="scale(0.117188 0.117188)" d="M1500.53 121.297C1506.4 124.295 1510.91 131.614 1516.97 133.601C1518.99 134.259 1521.13 134.152 1523.03 133.163C1533.83 127.51 1526.34 118.812 1528.01 113.498C1534.58 112.152 1545.8 110.816 1551.87 113.986C1556.73 116.518 1553.57 123.824 1555.38 128.124C1556.32 130.371 1558.04 131.487 1560.35 132.114C1563.36 132.927 1567.53 131.386 1570.15 129.937C1573.99 127.806 1576.04 125.307 1577.27 121.069C1581.94 122.51 1586.73 124.086 1590.84 126.814C1594.87 129.488 1597.06 132.626 1597.95 137.356C1597.91 137.57 1597.88 137.787 1597.82 137.997C1596.6 142.418 1592.44 145.049 1588.68 147.107C1592.55 151.075 1597.38 155.562 1598.92 161.031C1602.31 159.819 1605.88 158.34 1609.41 157.637C1612.13 157.092 1615.38 157.467 1617.61 159.217C1620.17 161.228 1621.62 165.31 1621.97 168.457C1623.08 178.512 1612.22 180.389 1607.48 186.879C1606.32 188.462 1605.85 190.334 1606.25 192.265C1607.5 198.362 1616.01 199.978 1620.46 203.124C1621.51 203.862 1622.72 205.377 1622.9 206.653C1623.45 210.646 1620.52 214.622 1618.29 217.703C1628.32 222.683 1636.29 235.356 1642.03 244.638C1646.97 252.63 1653.14 262.042 1650.89 271.672C1650.36 263.236 1637.13 245.945 1631.61 239.33C1624.98 231.37 1616.04 223.382 1605.24 222.562C1602.41 222.348 1599.86 222.647 1597.7 224.651C1596.65 225.627 1596.23 227.859 1596.24 229.226C1596.28 236.32 1603.38 245.144 1606.81 251.158C1626.17 285.13 1630.13 287.902 1666.61 300.986C1670.96 302.549 1676.79 304.278 1680.05 307.651L1678.73 308.408C1656.04 307.885 1642.32 292.458 1621.91 287.029L1621.43 286.906C1623.55 287.981 1625.59 289.132 1627.45 290.619C1651.56 309.896 1666.35 343.324 1669.85 373.426C1670.97 383.056 1671.19 394.336 1664.88 402.269C1681.66 398.151 1697.21 387.604 1713.03 380.737C1712.76 381.442 1712.72 381.654 1712.36 382.252C1706.34 392.138 1625.69 433.205 1611.88 437.725C1604.87 440.022 1597.81 435.253 1590.28 438.097C1582.69 440.962 1576.75 447.943 1568.76 449.934C1575.56 444.604 1581.41 437.32 1589.62 434.04C1595.94 431.513 1601.85 432.752 1607.94 435.306Q1608.54 435.174 1609.13 435.025C1621.51 431.927 1631.33 424.541 1637.87 413.684C1641.72 413.381 1649.02 413.99 1651.98 411.514C1654.04 409.802 1654.17 408.462 1654.58 406.001L1654.18 403.074C1654.2 402.613 1654.23 402.472 1654.1 401.963C1653.08 397.712 1646.09 394.88 1642.43 393.042C1642.72 392.35 1642.96 391.756 1643.13 391.023C1644.18 386.551 1645.35 377.385 1642.93 373.329C1646.25 371.952 1650.04 370.601 1652.79 368.239C1655.22 366.159 1655.81 364.057 1656.07 361.002C1655.03 357.958 1653.46 356.556 1651.08 354.541C1646.66 350.806 1639.39 354.594 1634.28 351.705C1629.91 349.239 1628.12 342.633 1623.51 339.587C1626.13 338.186 1628.71 336.549 1630.64 334.233C1632.29 332.24 1633.2 329.623 1632.77 327.035C1631.79 321.098 1626.62 317.769 1622.04 314.61C1621.96 314.86 1621.91 315.122 1621.79 315.359C1618.93 321.212 1612.43 323.966 1606.88 326.592C1602.95 322.08 1592.63 321.066 1590.56 316.562L1592.78 315.702C1597.06 316.247 1601.01 318.466 1605.2 319.523C1608.11 320.256 1611.28 320.662 1613.88 318.868C1616.23 317.252 1617.37 313.918 1617.74 311.24Q1617.76 310.538 1617.68 309.84Q1617.6 309.142 1617.42 308.462Q1617.25 307.782 1616.98 307.132Q1616.71 306.482 1616.36 305.875C1605.84 287.423 1564.22 263.006 1544.07 257.898C1544.34 259.768 1544.19 261.684 1543.54 263.466C1542.72 265.698 1541.57 267.286 1539.34 268.271C1532.44 271.321 1523.66 269.867 1516.84 267.401C1516.91 267.08 1517.05 266.461 1517.18 266.189C1517.9 264.768 1517.29 266.68 1517.96 264.88C1518.96 262.198 1518.37 255.869 1517 253.352C1515.96 251.455 1515.17 250.557 1512.97 250.096C1505.6 248.555 1503.1 255.824 1497.89 259.232C1497.71 259.348 1497.53 259.457 1497.35 259.569C1493.34 254.833 1489.23 254.214 1484.49 250.977C1479.73 247.732 1483.26 242.384 1482.35 237.586C1477.5 229.823 1463.18 227.156 1454.96 224.919L1447.95 223.208C1442.77 222.066 1437.12 220.368 1431.87 219.828C1434 224.243 1437.4 238.504 1435.46 243.016C1435.38 243.205 1435.25 243.369 1435.15 243.546C1441.26 244.241 1453.99 244.07 1458.14 248.726C1461.15 252.109 1461.21 257.308 1460.69 261.544C1459.84 268.559 1456.63 279.401 1451.55 284.44C1443.12 281.919 1434.56 280.517 1425.78 279.964C1429.92 277.134 1432.52 276.66 1437.46 277.546C1441.15 278.208 1444.82 279.244 1448.44 280.21C1453.54 275.647 1455.94 267.645 1456.4 260.904C1456.59 258.122 1455.86 254.877 1454.06 252.697C1448.77 246.27 1435.93 246.767 1428.44 246.213C1432.94 240.018 1432.53 230.784 1431.42 223.513C1430.39 216.78 1428.46 208.777 1423.31 204.06C1430.99 201.77 1440.41 197.732 1444.3 190.251Q1444.62 189.637 1444.87 188.993Q1445.13 188.349 1445.32 187.682Q1445.5 187.015 1445.62 186.333Q1445.73 185.65 1445.78 184.959Q1445.82 184.268 1445.8 183.576Q1445.77 182.884 1445.67 182.199Q1445.57 181.514 1445.41 180.842Q1445.24 180.17 1445 179.52C1443.1 174.158 1436.95 168.557 1431.98 165.912C1426.14 174.133 1414.06 177.36 1404.74 179.944C1403.94 174.518 1398.98 170.304 1394.8 167.213C1389.45 163.264 1382.36 159.027 1375.87 157.544C1379.93 154.362 1384.76 148.134 1385.53 142.917C1386 139.785 1384.9 136.829 1382.98 134.386C1376.66 126.343 1364.06 124.247 1354.46 123.155C1355.55 127.49 1355.65 132.826 1353.29 136.765C1350.35 141.68 1343.81 143.976 1338.54 145.149C1329.57 147.145 1319.95 146.952 1310.8 146.983C1311.4 138.455 1308.28 132.251 1302.76 125.904C1302.13 125.178 1301.48 124.509 1300.78 123.849C1293.8 130.761 1276.51 133.497 1267.14 134.714C1271.52 137.462 1275.8 141.56 1277.09 146.753C1278.17 151.14 1276.77 155.692 1274.44 159.436C1269.32 167.675 1257.74 176.347 1248.49 179.521C1244.04 173.365 1229.18 171.205 1222.03 169.872C1222.86 178.175 1218.64 186.793 1213.44 193.092C1212.12 194.696 1210.59 196.127 1208.85 197.265C1216.63 199.818 1229.66 202.905 1233.72 210.905C1237.41 218.186 1235.5 229.869 1232.88 237.207C1231.53 240.991 1229.53 244.994 1225.75 246.835C1219.59 249.833 1209.79 249.194 1203.02 249.389C1208.39 254.452 1209.86 262.149 1210.03 269.273C1210.1 272.365 1209.76 275.587 1208.92 278.572C1216.59 277.696 1226.42 277.502 1233.47 274.459C1241.06 278.87 1247.72 288.746 1249.86 297.086C1251.37 302.959 1250.91 309.277 1247.69 314.527C1245.06 318.797 1240.75 321.824 1236.49 324.284C1243.61 327.781 1257.61 335.835 1259.8 343.784C1259.96 344.364 1260 344.945 1259.99 345.541C1267.84 342.008 1275.97 335.944 1278.96 327.517C1279.18 326.911 1279.34 326.3 1279.47 325.674C1290.67 327.253 1306.41 330.417 1313.58 339.929C1315.75 342.804 1316.82 346.04 1316.24 349.642C1315.66 353.235 1312.8 359.676 1310.16 362.199C1319.83 363.251 1335.16 366.45 1343.29 359.939C1345.55 358.133 1346.88 355.525 1347.19 352.672C1347.65 348.51 1346.52 343.696 1344.92 339.864L1346.9 341.061C1349.3 344.785 1350.99 348.436 1350.7 352.978C1350.45 357.072 1348.33 361.211 1345.19 363.844C1336.45 371.172 1316 365.469 1305.31 364.56C1307.92 362.324 1309.75 359.404 1310.95 356.196C1312.62 351.708 1312.52 348.493 1310.68 344.13C1308.46 338.87 1300.97 335.652 1295.88 333.547C1292.33 332.076 1286.17 329.385 1282.43 330.229C1280.2 330.73 1272.39 346.482 1259.83 351.695C1259.92 350.367 1259.76 349.238 1259.1 348.076C1254.04 339.199 1239.84 327.782 1229.79 325.253C1235.04 322.803 1239.66 319.327 1242.76 314.33C1246.11 308.939 1247.16 302.741 1245.52 296.586C1243.81 290.128 1237.73 281.956 1231.86 278.632C1222.65 280.487 1213.29 281.62 1204 282.928C1205.71 279.854 1206.12 276.05 1206.38 272.593C1207.05 263.985 1206.09 253.795 1200.34 246.984C1207.63 246.167 1217.88 245.929 1224.28 242.18C1228.85 239.499 1230.1 232.728 1231.42 227.958C1232.82 222.913 1232.83 218.069 1230.08 213.448C1225 204.926 1213.65 201.647 1204.57 199.464C1208.62 195.068 1213.45 190.007 1214.08 183.826C1213.74 182.736 1213.55 181.364 1212.75 180.541C1208.3 175.964 1201.47 177.045 1195.56 176.999C1200.14 176.482 1205 175.999 1209.41 174.664C1220.66 171.265 1233.51 163.324 1244.48 172.183C1245.83 173.275 1247.55 174.819 1248.22 176.416C1251.94 174.204 1255.88 172.211 1258.55 168.704L1259.05 166.194C1256.83 164.117 1255.17 163.66 1252.16 163.189C1242 161.602 1230.33 162.701 1220 162.815Q1182.49 163.403 1145 164.571C939.021 171.241 539.884 232.549 396.811 385.173C367.289 416.666 343.181 458.357 344.812 503C345.147 512.188 352.392 532.526 350.75 539.044C349.535 539.302 349.363 539.392 348.226 538.938Q346.124 533.612 344.678 528.072Q343.233 522.531 342.466 516.857C336.764 474.843 352.572 433.453 377.709 400.36C494.245 246.939 886.622 179.266 1074.69 164.759Q1139.03 159.899 1203.55 159.41C1223.19 159.276 1244.75 162.849 1264.05 159.988C1267.42 159.487 1270.04 158.837 1272.01 155.79C1273.73 153.135 1273.61 149.872 1272.89 146.923C1271.51 141.285 1267.5 134.843 1262.54 131.741C1274.88 130.168 1292.9 126.653 1302.47 118.098C1304 119.233 1305.24 120.497 1306.37 122.023C1310.11 127.049 1314.65 136.932 1313.72 143.418C1323.47 142.255 1333.13 142.173 1342.93 142.465C1351.11 134.65 1349.45 123.856 1353.62 119.728C1355.45 119.266 1357.22 118.973 1359.11 119.052C1367.55 119.404 1379.33 123.077 1385.12 129.424C1387.75 132.308 1389.34 136.055 1389.14 139.989C1388.88 145.005 1384.79 153 1381.14 156.377C1386.08 158.067 1390.34 160.101 1394.66 163.055C1398.28 165.529 1405.11 171.228 1405.94 175.769C1407.47 175.446 1408.98 175.067 1410.45 174.541C1416.95 172.22 1429.73 166.525 1432.66 160.294C1438.68 162.917 1445.56 169.745 1448.47 175.589C1450.56 179.789 1451.3 184.316 1449.74 188.812C1447.36 195.676 1440.8 199.154 1434.61 202.069C1443.32 203.51 1454.69 206.553 1463.27 204.14C1467.6 202.923 1472.64 200.583 1474.73 196.33C1475.83 194.087 1475.74 191.718 1474.74 189.45C1471.82 182.836 1465.48 182.824 1459.76 180.359C1461.34 177.958 1462.99 175.583 1464.49 173.133C1467.58 168.095 1467.95 161.13 1466.57 155.475C1472.62 156.886 1478.07 158.402 1483.69 161.088C1486.48 159.485 1488.58 156.916 1489.92 154.023C1491.26 151.129 1491.22 147.888 1490.04 144.943C1488.11 140.134 1484.38 137.911 1479.83 135.947C1483.81 134.755 1487.81 132.869 1491.33 130.677C1494.68 128.589 1499.61 125.36 1500.53 121.297ZM1532.04 117.499C1533.08 122.073 1534.23 127.233 1531.54 131.49C1528.09 136.955 1520.21 137.978 1514.41 138.978Q1513.24 139.178 1512.07 139.363C1511.58 135.082 1508.76 131.848 1505.51 129.237C1503.86 127.912 1502.01 126.973 1500.1 126.079C1497.96 131.382 1492.71 133.776 1488.04 136.528C1491.12 141.789 1497.88 146.515 1495.61 153.428C1494.13 157.935 1486.58 164.18 1482.37 166.061C1482.21 166.131 1482.05 166.192 1481.9 166.257C1479.72 163.336 1477.95 161.285 1474.33 160.694C1471.61 161.805 1470.27 164.464 1469.15 167.029C1467.51 170.817 1466.8 175.069 1464.38 178.469C1469.71 180.242 1477.56 182.519 1480.23 187.922C1481.24 189.961 1481.13 192.373 1480.31 194.462C1478.28 199.665 1471.77 202.877 1467.24 205.736C1469.27 208.997 1470.41 215.668 1469.52 219.43C1469.39 219.98 1469.35 220.037 1469.14 220.621C1476.43 219.965 1482.55 218.685 1488.62 223.851C1490.96 225.84 1492.48 228.775 1492.51 231.868C1492.55 236.505 1489.32 242.498 1485.94 245.522C1485.13 246.245 1484.27 246.855 1483.38 247.468C1488.21 249.156 1492.01 251.061 1496.3 253.828L1496.99 253.431C1502.63 250.101 1507.06 243.571 1513.98 244.778C1523.27 251.719 1519.18 266.137 1533.53 266.24L1535.2 265.159C1539.17 262.29 1543.17 258.936 1543.8 253.732C1543.82 253.595 1543.81 253.457 1543.82 253.319C1554.43 251.087 1565.98 248.594 1575.99 244.38C1581.76 246.556 1585.98 248.569 1592.08 245.842C1593.18 245.35 1594 244.546 1594.76 243.636C1595.45 241.045 1595.25 239.468 1593.86 237.102C1592.36 234.545 1590.62 231.9 1588.15 230.195C1593.05 227.023 1595.8 223.722 1598.78 218.778C1603.47 219.28 1607.84 220.286 1612.4 221.46C1614.93 218.65 1617.77 215.429 1617.7 211.457C1617.67 209.747 1616.33 207.877 1615.1 206.758C1610.98 203.022 1602.63 199.201 1602.38 192.945C1602.25 189.686 1604.27 185.643 1603.45 182.576C1608.65 180.651 1616 178.442 1618.65 173.109C1619.31 171.776 1619.52 170.517 1619.59 169.048C1617.84 166.181 1616.13 165.126 1612.84 164.276C1607.39 162.872 1601.02 163.287 1595.44 163.638C1591.9 157.44 1588.72 152.913 1583.16 148.389C1586.15 144.09 1592.49 142.308 1591.3 135.922C1590.79 133.198 1587.59 129.588 1585.26 128.233C1583.44 127.178 1582.31 126.895 1580.31 127.513C1575.15 129.102 1572.62 135.716 1568 138.478C1562.24 135.969 1556.73 134.593 1550.58 133.398C1551.98 129.603 1553.23 125.508 1551.37 121.648C1550.37 119.593 1547.55 118.217 1545.47 117.578C1541.23 116.27 1536.37 116.984 1532.04 117.499ZM1571.04 248.494C1577.23 251.548 1610.73 275.81 1613.07 275.258L1611.39 273.681C1611.68 266.394 1603.86 256.557 1599.01 251.267C1597.8 249.946 1596.39 248.937 1594.85 248.028C1591.47 250.496 1588.99 252.193 1584.62 251.464C1580.28 250.739 1575.34 247.626 1571.04 248.494ZM1632.79 334.498C1631.41 336.595 1630.11 337.625 1630.67 340.268C1631.47 344.024 1634.11 345.991 1637.02 348.156L1638.81 348.503C1641.52 347.001 1641.91 346.712 1643.39 344.01C1643.57 341.348 1643.06 339.711 1641.3 337.66C1639.67 335.752 1637.56 334.529 1635.03 334.424C1634.26 334.392 1633.56 334.436 1632.79 334.498Z"/>
	<path fill="#4C4C54" transform="scale(0.117188 0.117188)" d="M1476.48 223.5C1478.53 223.558 1481.52 223.601 1483.43 224.425C1485.67 225.398 1486.35 226.876 1487.14 228.975L1485.94 230.92C1483.01 232.567 1480.26 231.593 1477.17 230.912C1474.52 228.08 1469.19 226.335 1465.66 224.658L1476.48 223.5Z"/>
	<path fill="#4C4C54" transform="scale(0.117188 0.117188)" d="M1447.95 223.208L1449.57 222.324C1442.96 219.266 1434.51 215.51 1430.08 209.481L1429.95 207.681C1433.57 205.046 1440.8 206.553 1445.04 207.228C1450.93 208.163 1462.93 210.409 1466.59 215.238C1467.75 216.767 1467.39 217.477 1467.16 219.286C1465.55 221.313 1464.17 223.135 1461.44 223.574C1458.94 223.975 1457.1 223.146 1454.96 224.919L1447.95 223.208Z"/>
	<path fill="#4C4C54" transform="scale(0.117188 0.117188)" d="M1548.58 255.63C1566.42 251.33 1572.84 253.807 1588.19 263.136C1621.15 283.184 1652.59 316.339 1661.77 354.629C1664.33 365.32 1669.9 396.78 1663.08 406.1C1661.82 407.813 1661.19 408.102 1659.16 408.346L1656.19 405.695L1654.58 406.001L1654.18 403.074C1655.5 402.102 1656.61 401.748 1656.92 400.06C1657.95 394.343 1653.62 388.371 1653.52 382.667C1653.37 374.246 1663.48 365.417 1658.95 357.089C1658.78 356.772 1658.4 356.185 1658.14 355.845C1655.45 352.275 1651.14 349.953 1648.61 346.253C1642.98 338.039 1639.38 328.28 1633.67 319.93C1614.24 291.498 1581.96 265.299 1548.58 255.63Z"/>
	<path fill="#00927E" transform="scale(0.117188 0.117188)" d="M1532.04 117.499C1536.37 116.984 1541.23 116.27 1545.47 117.578C1547.55 118.217 1550.37 119.593 1551.37 121.648C1553.23 125.508 1551.98 129.603 1550.58 133.398C1556.73 134.593 1562.24 135.969 1568 138.478C1572.62 135.716 1575.15 129.102 1580.31 127.513C1582.31 126.895 1583.44 127.178 1585.26 128.233C1587.59 129.588 1590.79 133.198 1591.3 135.922C1592.49 142.308 1586.15 144.09 1583.16 148.389C1588.72 152.913 1591.9 157.44 1595.44 163.638C1601.02 163.287 1607.39 162.872 1612.84 164.276C1616.13 165.126 1617.84 166.181 1619.59 169.048C1619.52 170.517 1619.31 171.776 1618.65 173.109C1616 178.442 1608.65 180.651 1603.45 182.576C1604.27 185.643 1602.25 189.686 1602.38 192.945C1602.63 199.201 1610.98 203.022 1615.1 206.758C1616.33 207.877 1617.67 209.747 1617.7 211.457C1617.77 215.429 1614.93 218.65 1612.4 221.46C1607.84 220.286 1603.47 219.28 1598.78 218.778C1595.8 223.722 1593.05 227.023 1588.15 230.195C1590.62 231.9 1592.36 234.545 1593.86 237.102C1595.25 239.468 1595.45 241.045 1594.76 243.636C1594 244.546 1593.18 245.35 1592.08 245.842C1585.98 248.569 1581.76 246.556 1575.99 244.38C1565.98 248.594 1554.43 251.087 1543.82 253.319C1543.81 253.457 1543.82 253.595 1543.8 253.732C1543.17 258.936 1539.17 262.29 1535.2 265.159L1533.53 266.24C1519.18 266.137 1523.27 251.719 1513.98 244.778C1507.06 243.571 1502.63 250.101 1496.99 253.431L1496.3 253.828C1492.01 251.061 1488.21 249.156 1483.38 247.468C1484.27 246.855 1485.13 246.245 1485.94 245.522C1489.32 242.498 1492.55 236.505 1492.51 231.868C1492.48 228.775 1490.96 225.84 1488.62 223.851C1482.55 218.685 1476.43 219.965 1469.14 220.621C1469.35 220.037 1469.39 219.98 1469.52 219.43C1470.41 215.668 1469.27 208.997 1467.24 205.736C1471.77 202.877 1478.28 199.665 1480.31 194.462C1481.13 192.373 1481.24 189.961 1480.23 187.922C1477.56 182.519 1469.71 180.242 1464.38 178.469C1466.8 175.069 1467.51 170.817 1469.15 167.029C1470.27 164.464 1471.61 161.805 1474.33 160.694C1477.95 161.285 1479.72 163.336 1481.9 166.257C1482.05 166.192 1482.21 166.131 1482.37 166.061C1486.58 164.18 1494.13 157.935 1495.61 153.428C1497.88 146.515 1491.12 141.789 1488.04 136.528C1492.71 133.776 1497.96 131.382 1500.1 126.079C1502.01 126.973 1503.86 127.912 1505.51 129.237C1508.76 131.848 1511.58 135.082 1512.07 139.363Q1513.24 139.178 1514.41 138.978C1520.21 137.978 1528.09 136.955 1531.54 131.49C1534.23 127.233 1533.08 122.073 1532.04 117.499ZM1531.47 152.499C1519.59 158.621 1506.04 165.25 1501.61 178.906C1498.35 188.92 1500.53 199.628 1505.35 208.755C1510.62 218.73 1519.39 227.782 1530.44 231.059C1536.27 232.793 1543.46 232.71 1549.2 230.584C1560.37 228.298 1570.69 223.594 1577.22 213.833Q1577.74 213.057 1578.22 212.257Q1578.7 211.457 1579.13 210.635Q1579.57 209.813 1579.97 208.97Q1580.37 208.128 1580.73 207.267Q1581.09 206.406 1581.4 205.528Q1581.72 204.651 1581.99 203.759Q1582.26 202.868 1582.49 201.964Q1582.72 201.06 1582.91 200.146Q1583.09 199.233 1583.23 198.311Q1583.37 197.389 1583.47 196.462Q1583.56 195.534 1583.61 194.603Q1583.66 193.672 1583.67 192.74Q1583.67 191.808 1583.63 190.876Q1583.59 189.945 1583.5 189.016Q1583.42 188.088 1583.29 187.165Q1583.16 186.242 1582.98 185.326C1580.83 174.637 1574.06 164.268 1564.82 158.384C1555.33 152.331 1542.49 150.479 1531.47 152.499Z"/>
	<path fill="#4C4C54" transform="scale(0.117188 0.117188)" d="M348.226 538.938C349.363 539.392 349.535 539.302 350.75 539.044C352.392 532.526 345.147 512.188 344.812 503C343.181 458.357 367.289 416.666 396.811 385.173C539.884 232.549 939.021 171.241 1145 164.571Q1182.49 163.403 1220 162.815C1230.33 162.701 1242 161.602 1252.16 163.189C1255.17 163.66 1256.83 164.117 1259.05 166.194L1258.55 168.704C1255.88 172.211 1251.94 174.204 1248.22 176.416C1247.55 174.819 1245.83 173.275 1244.48 172.183C1233.51 163.324 1220.66 171.265 1209.41 174.664C1205 175.999 1200.14 176.482 1195.56 176.999C1190.89 177.361 1186.24 177.77 1181.55 177.711C1150.82 179.509 1120.04 180.416 1089.32 182.356Q1017.83 186.926 946.79 196.178C796.41 215.989 508.832 280.22 406.51 394.918C379.719 424.949 359.753 460.775 362.299 502.229C364.548 538.845 384.095 570.194 411.146 594.072C516.115 686.724 762.404 686.441 896.554 677.763C1088.79 665.329 1337.74 617.503 1508.97 530.187C1521.17 523.967 1568 498.44 1574.65 490.947C1577.17 489.595 1580.58 487.731 1581.9 485.153C1583.06 485.294 1584.08 485.179 1585.24 485.073C1591.45 480.533 1616.92 466.061 1619.08 462.744C1619.31 468.007 1616.62 470.976 1613.78 475.061C1613.18 477.448 1611.49 478.823 1609.43 480.081C1608.91 480.397 1608.37 480.67 1607.83 480.935C1596.69 488.77 1586.63 498.133 1575.59 506.135C1549.65 524.919 1521.33 541.182 1492.48 555.045C1431.53 584.341 1366.64 605.436 1301.55 623.368Q1286.03 627.648 1270.43 631.67Q1254.84 635.693 1239.18 639.457Q1223.52 643.221 1207.8 646.726Q1192.09 650.231 1176.31 653.476Q1160.54 656.721 1144.71 659.705Q1128.89 662.689 1113.02 665.41Q1097.14 668.132 1081.23 670.592Q1065.31 673.051 1049.36 675.247Q1033.41 677.443 1017.42 679.375Q1001.43 681.307 985.412 682.975Q969.395 684.642 953.352 686.045Q937.309 687.448 921.245 688.585Q905.181 689.723 889.101 690.595Q873.02 691.467 856.928 692.073Q840.835 692.679 824.734 693.019Q808.634 693.359 792.53 693.433C723.865 693.98 654.69 691.658 586.924 679.835C511.917 666.749 413.672 635.511 368.177 570.276C364.767 565.385 359.942 551.536 354.421 550.137L353.161 551.961C350.889 548.932 349.151 542.625 348.226 538.938Z"/>
	<path fill="#202221" transform="scale(0.117188 0.117188)" d="M1574.65 490.947L1575 493.073C1566.6 504.08 1544.48 515.731 1531.93 522.815C1423.13 584.209 1297.14 617.656 1175.39 642.199C979.749 681.635 599.239 725.946 430.426 613.248C396.984 590.922 368.142 558.801 360.177 518.359C353.151 482.691 364.019 447.764 383.962 418.134C464.122 299.037 697.303 240.094 829.966 214.091Q868.421 206.277 907.162 200.03Q945.903 193.782 984.865 189.112Q1023.83 184.442 1062.95 181.356Q1102.07 178.271 1141.28 176.775C1149.41 176.477 1176.01 173.987 1181.55 177.711C1150.82 179.509 1120.04 180.416 1089.32 182.356Q1017.83 186.926 946.79 196.178C796.41 215.989 508.832 280.22 406.51 394.918C379.719 424.949 359.753 460.775 362.299 502.229C364.548 538.845 384.095 570.194 411.146 594.072C516.115 686.724 762.404 686.441 896.554 677.763C1088.79 665.329 1337.74 617.503 1508.97 530.187C1521.17 523.967 1568 498.44 1574.65 490.947Z"/>
	<path fill="#00927E" transform="scale(0.117188 0.117188)" d="M1310.8 146.983C1319.95 146.952 1329.57 147.145 1338.54 145.149C1343.81 143.976 1350.35 141.68 1353.29 136.765C1355.65 132.826 1355.55 127.49 1354.46 123.155C1364.06 124.247 1376.66 126.343 1382.98 134.386C1384.9 136.829 1386 139.785 1385.53 142.917C1384.76 148.134 1379.93 154.362 1375.87 157.544C1382.36 159.027 1389.45 163.264 1394.8 167.213C1398.98 170.304 1403.94 174.518 1404.74 179.944C1414.06 177.36 1426.14 174.133 1431.98 165.912C1436.95 168.557 1443.1 174.158 1445 179.52Q1445.24 180.17 1445.41 180.842Q1445.57 181.514 1445.67 182.199Q1445.77 182.884 1445.8 183.576Q1445.82 184.268 1445.78 184.959Q1445.73 185.65 1445.62 186.333Q1445.5 187.015 1445.32 187.682Q1445.13 188.349 1444.87 188.993Q1444.62 189.637 1444.3 190.251C1440.41 197.732 1430.99 201.77 1423.31 204.06C1428.46 208.777 1430.39 216.78 1431.42 223.513C1432.53 230.784 1432.94 240.018 1428.44 246.213C1435.93 246.767 1448.77 246.27 1454.06 252.697C1455.86 254.877 1456.59 258.122 1456.4 260.904C1455.94 267.645 1453.54 275.647 1448.44 280.21C1444.82 279.244 1441.15 278.208 1437.46 277.546C1432.52 276.66 1429.92 277.134 1425.78 279.964C1425.2 287.594 1417.6 296.811 1412.07 301.56C1410.36 303.029 1408.48 304.336 1406.62 305.605C1412.62 309.97 1419.24 314.624 1420.61 322.411C1421.43 327.104 1419.7 331.643 1416.95 335.396C1412.91 340.902 1404.56 347.645 1397.6 348.637C1396.72 348.762 1395.85 348.793 1394.98 348.795C1388.44 342.551 1384.07 333.665 1375.41 330.037C1371.79 331.909 1368.18 333.752 1364.24 334.886C1358.79 336.458 1349.33 336.661 1344.92 339.864C1346.52 343.696 1347.65 348.51 1347.19 352.672C1346.88 355.525 1345.55 358.133 1343.29 359.939C1335.16 366.45 1319.83 363.251 1310.16 362.199C1312.8 359.676 1315.66 353.235 1316.24 349.642C1316.82 346.04 1315.75 342.804 1313.58 339.929C1306.41 330.417 1290.67 327.253 1279.47 325.674C1279.34 326.3 1279.18 326.911 1278.96 327.517C1275.97 335.944 1267.84 342.008 1259.99 345.541C1260 344.945 1259.96 344.364 1259.8 343.784C1257.61 335.835 1243.61 327.781 1236.49 324.284C1240.75 321.824 1245.06 318.797 1247.69 314.527C1250.91 309.277 1251.37 302.959 1249.86 297.086C1247.72 288.746 1241.06 278.87 1233.47 274.459C1226.42 277.502 1216.59 277.696 1208.92 278.572C1209.76 275.587 1210.1 272.365 1210.03 269.273C1209.86 262.149 1208.39 254.452 1203.02 249.389C1209.79 249.194 1219.59 249.833 1225.75 246.835C1229.53 244.994 1231.53 240.991 1232.88 237.207C1235.5 229.869 1237.41 218.186 1233.72 210.905C1229.66 202.905 1216.63 199.818 1208.85 197.265C1210.59 196.127 1212.12 194.696 1213.44 193.092C1218.64 186.793 1222.86 178.175 1222.03 169.872C1229.18 171.205 1244.04 173.365 1248.49 179.521C1257.74 176.347 1269.32 167.675 1274.44 159.436C1276.77 155.692 1278.17 151.14 1277.09 146.753C1275.8 141.56 1271.52 137.462 1267.14 134.714C1276.51 133.497 1293.8 130.761 1300.78 123.849C1301.48 124.509 1302.13 125.178 1302.76 125.904C1308.28 132.251 1311.4 138.455 1310.8 146.983ZM1320.38 170.498C1297.7 176.937 1278.39 185.5 1266.53 206.947Q1265.69 208.438 1264.92 209.969Q1264.15 211.499 1263.46 213.066Q1262.77 214.633 1262.16 216.232Q1261.54 217.831 1261.01 219.459Q1260.48 221.086 1260.02 222.738Q1259.57 224.39 1259.2 226.062Q1258.83 227.734 1258.55 229.423Q1258.26 231.111 1258.06 232.812Q1257.86 234.512 1257.74 236.221Q1257.62 237.929 1257.59 239.642Q1257.55 241.354 1257.6 243.066Q1257.66 244.778 1257.79 246.485Q1257.93 248.192 1258.15 249.89Q1258.37 251.589 1258.67 253.274Q1258.98 254.959 1259.36 256.628Q1259.75 258.296 1260.22 259.943C1265.55 278.123 1279.24 294.658 1295.83 303.697C1308.18 310.432 1325.31 314.616 1339.22 310.905C1359.9 307.388 1378.65 299.521 1391.16 281.886C1401.81 266.867 1406.78 247.845 1403.63 229.606C1400.49 211.49 1388.74 193.594 1373.76 183.039C1358.66 172.411 1338.56 168.211 1320.38 170.498Z"/>
	<path fill="#202221" transform="scale(0.117188 0.117188)" d="M1320.23 185.498L1321.05 185.397C1338.33 183.351 1355.88 187.577 1369.54 198.565C1380.53 207.409 1388.65 220.292 1390.05 234.498C1391.47 248.966 1386.41 263.638 1377.25 274.811C1366.76 287.609 1352.19 294.504 1335.93 296.108C1326.57 297.844 1316.01 296.119 1307.39 292.321C1291.76 285.437 1279.98 270.283 1273.89 254.604C1272.19 250.237 1273.92 235.472 1272.56 227.916L1272.31 228.532C1281.19 215.966 1288.19 201.992 1301.68 193.379L1302.33 192.972C1307.78 189.497 1314.16 187.614 1320.23 185.498ZM1300.64 196.498C1300.53 196.693 1300.43 196.889 1300.33 197.083C1288.85 218.019 1271.39 225.011 1279.38 253.457C1283.36 267.614 1293.83 278.872 1306.52 285.876C1318.4 292.437 1332.06 294.418 1345.14 290.471C1347.84 289.656 1352.37 288.361 1354.35 286.501C1365.58 282.583 1373.89 272.9 1378.97 262.444Q1379.53 261.298 1380.04 260.126Q1380.55 258.953 1381 257.758Q1381.45 256.562 1381.84 255.346Q1382.23 254.13 1382.56 252.896Q1382.89 251.662 1383.16 250.413Q1383.43 249.165 1383.63 247.905Q1383.84 246.644 1383.99 245.376Q1384.13 244.107 1384.22 242.832Q1384.3 241.558 1384.32 240.281Q1384.35 239.003 1384.3 237.727Q1384.26 236.45 1384.16 235.177Q1384.06 233.904 1383.89 232.638Q1383.73 231.371 1383.5 230.114Q1383.27 228.857 1382.98 227.613Q1382.7 226.369 1382.35 225.14Q1382 223.911 1381.59 222.701C1379.81 217.442 1375.15 208.778 1370.33 205.716C1352.68 198.652 1319.53 193.952 1300.64 196.498Z"/>
	<path fill="#4C4C54" transform="scale(0.117188 0.117188)" d="M1316.5 189.499C1328.6 188.293 1341.17 189.376 1352.66 193.566C1355.22 194.498 1357.89 195.45 1359.06 197.964C1357.09 199.252 1355.42 199.051 1353.19 198.965C1343.86 193.936 1319.93 197.229 1313.81 191.669L1316.5 189.499Z"/>
	<path fill="#4C4C54" transform="scale(0.117188 0.117188)" d="M1193.88 495.497C1197.17 495.119 1200.59 494.86 1203.72 496.12C1207.85 497.778 1212.18 501.198 1213.88 505.413C1214.86 507.837 1214.92 510.6 1213.75 512.98C1211.94 516.682 1207.93 518.089 1204.35 519.498C1204.16 519.679 1203.99 519.887 1203.78 520.04C1201.64 521.563 1199 522.443 1196.39 522.289C1194.18 521.502 1192.68 520.484 1191.31 518.591C1188.61 514.852 1187.5 509.189 1188.35 504.677C1189.08 500.816 1190.58 497.701 1193.88 495.497Z"/>
	<path fill="#4C4C54" transform="scale(0.117188 0.117188)" d="M1251.83 447.02C1251.5 452.411 1248.5 458.386 1247.9 464.174C1246.63 476.494 1251.25 505.109 1244.46 514.944C1243.46 516.391 1243.19 516.432 1241.51 516.769C1241.18 516.453 1241.04 516.336 1240.74 515.948C1236 509.939 1237.17 448.688 1238.01 438.099C1238.23 435.31 1238.12 431.742 1240.49 429.874C1242.13 428.583 1242.48 428.767 1244.43 428.997C1246.97 431.72 1246.85 438.005 1248.48 441.872C1250.02 443.619 1251.37 444.665 1251.83 447.02Z"/>
	<path fill="#202221" transform="scale(0.117188 0.117188)" d="M1248.48 441.872C1260.64 433.989 1273.09 426.649 1288.25 429.812C1296.25 431.481 1302.42 436.148 1306.71 443.047C1315.9 457.814 1314.73 477.619 1314.77 494.317C1314.79 500.694 1315.42 508.183 1313.87 514.392C1313.29 516.702 1312.46 518.68 1310.88 520.496L1309.19 521.021C1306.04 519.019 1304.91 514.25 1304.19 510.804C1299.88 490.377 1314.26 454.48 1292.91 440.191C1286.69 436.035 1278.22 435.992 1271.16 437.523C1263.89 439.1 1258.72 444.819 1251.83 447.02C1251.37 444.665 1250.02 443.619 1248.48 441.872Z"/>
	<path fill="#4C4C54" transform="scale(0.117188 0.117188)" d="M1438.18 407.496C1440.99 407.093 1443.75 406.675 1446.32 408.255C1448.51 409.597 1449.43 411.819 1449.93 414.236C1450.76 418.276 1448.64 426.279 1446.44 429.697C1454.28 429.683 1465.3 428.579 1472.2 432.623L1471.7 434.19L1471.74 434.211C1464.39 437.615 1454.6 437.197 1446.7 437.292C1454.6 446.5 1444.73 486.983 1450.14 503.601C1451.29 507.129 1453.28 510.501 1456.79 512.085C1460.53 513.775 1462.99 512.864 1466.66 511.586C1468.78 511.618 1469.3 511.631 1471.12 512.682L1471.02 514.906C1469.17 517.28 1467.38 518.473 1464.55 519.491C1460.06 521.106 1454.59 521.897 1450.17 519.633C1430.62 509.619 1445.6 457.056 1438.79 438.374C1438.71 438.137 1438.61 437.902 1438.52 437.666C1434.54 435.952 1430.99 438.175 1427.2 434.894C1427.67 430.026 1439.18 427.231 1440.64 420.594C1441.48 416.716 1440.43 410.774 1438.18 407.496Z"/>
	<path fill="#202221" transform="scale(0.117188 0.117188)" d="M1089.38 213.486C1094.22 213.036 1101.57 211.997 1105.9 214.321C1101.71 217.896 1090.29 219.049 1084.88 219.796C1066.44 222.347 1047.44 223.077 1028.86 224.576Q987.116 227.656 945.694 233.681C851.933 247.201 758.615 265.655 669.284 297.847C665.597 299.424 661.848 300.381 657.851 299.791L657.297 298.602C666.155 288.717 702.631 281.314 715.809 277.74C796.493 255.859 876.944 238.413 959.91 227.42C1002.2 221.816 1047.96 220.731 1089.38 213.486Z"/>
	<path fill="#202221" transform="scale(0.117188 0.117188)" d="M1531.41 301.759C1537.69 305.061 1544.78 316.654 1549.22 318.158C1551.27 318.851 1556 317.63 1557.8 316.472C1563.61 312.745 1563.48 305.172 1564.54 298.989C1566.1 297.266 1568.06 296.491 1570.27 295.964C1575.78 294.652 1583.07 295.627 1587.86 298.713C1589.9 300.026 1591.6 301.974 1591.99 304.435C1592.44 307.298 1591.41 308.834 1589.73 310.984C1588.21 307.59 1586.87 303.786 1583.89 301.398C1577.35 300.02 1570.95 299.951 1564.3 299.849C1566.54 302.965 1568.97 306.934 1568.28 310.955C1567.83 313.597 1565.98 315.502 1563.8 316.903C1557.77 320.787 1550.13 321.529 1543.19 322.512C1542.94 318.013 1539.48 312.608 1536.22 309.601C1535.42 308.861 1534.09 308.089 1532.99 308.244C1529.45 308.74 1521.92 315.323 1516.89 317.217C1521.24 319.97 1525.42 322.831 1526.52 328.201C1527.44 332.638 1525.6 337.085 1523.12 340.685C1520.16 344.984 1516.12 348.295 1511.92 351.322C1507.53 347.039 1502.71 344.68 1496.97 342.649C1497.01 347.569 1495.04 351.151 1491.6 354.603C1490.24 355.96 1488.64 357.078 1487.06 358.165C1493.59 359.718 1500.51 362.328 1504.14 368.404C1505.94 371.408 1506.53 375.105 1505.56 378.484C1504.35 382.721 1501.09 386.456 1497.24 388.531C1493.85 390.361 1489.54 391.093 1485.8 391.913L1486.36 392.589C1489.32 396.201 1490.98 407.958 1494.49 408.458C1497.81 408.931 1502.7 406.927 1505.78 405.641C1510.51 408.198 1515.41 412.025 1517.06 417.403C1520.38 428.216 1503.39 439.134 1517.84 447.456C1520.44 448.949 1523.66 449.839 1526.6 448.929C1529.84 447.93 1532.13 444.393 1533.47 441.435C1533.88 440.529 1534.44 439.313 1534.46 438.31C1540.74 439.737 1550.04 440.896 1555.09 445.141C1555.24 445.278 1555.39 445.412 1555.54 445.551C1558.22 448.123 1558.95 451.392 1562.14 453.269C1564.88 452.674 1566.56 451.542 1568.76 449.934C1568.71 450.223 1568.68 450.515 1568.62 450.802C1567.34 457.042 1554.94 459.627 1555.39 468.744C1557.59 472.331 1560.31 473.584 1564.32 474.531C1571.11 476.137 1579.05 475.967 1585.82 474.37C1599.59 471.123 1613 463.578 1626.01 458.09C1646 449.653 1683.94 437.985 1705.41 436.673C1690.46 445.859 1656.27 450.313 1637.73 458.271C1628.83 462.087 1622.33 472.064 1613.78 475.061C1616.62 470.976 1619.31 468.007 1619.08 462.744C1616.92 466.061 1591.45 480.533 1585.24 485.073C1584.08 485.179 1583.06 485.294 1581.9 485.153C1583.28 484.317 1584.48 483.21 1585.7 482.162L1585.61 480.455C1580.17 477.92 1570.96 478.797 1564.86 478.247C1559.92 477.802 1554.87 476.799 1551.64 472.71C1546.09 465.664 1554.19 460.033 1554.12 453.088C1554.1 450.884 1553.15 449.395 1551.6 447.961C1548.89 445.458 1543.45 443.273 1539.7 443.618C1533.92 444.149 1532.1 450.495 1528.68 454.211C1526.79 456.272 1525.12 456.234 1522.52 456.433C1522.28 455.668 1522.24 455.468 1521.95 454.791C1518.47 446.77 1507.7 442.079 1499.95 439.198C1503.79 437.832 1506.95 435.652 1509.28 432.276C1511.91 428.48 1513.75 422.416 1512.79 417.817C1512.27 415.284 1511 413.299 1508.77 411.92C1502.98 408.336 1492.73 412.667 1486.32 414.003C1490.9 406.814 1484.74 399.265 1484.25 392.216C1483.92 387.509 1499.13 384.994 1503.12 378.368C1504.2 376.562 1504.58 374.641 1503.77 372.663C1501 365.895 1487.95 361.275 1481.44 358.917C1485.71 356.866 1488.7 354.461 1491.22 350.389C1493.37 346.914 1494.91 342.619 1494.01 338.538C1499.83 339.657 1507.61 345.026 1513.28 344.093C1515.57 343.716 1518 342.096 1519.22 340.137C1521.61 336.289 1521.43 330.656 1520.5 326.4C1519.46 321.577 1515.71 318.569 1511.75 316.072C1515.04 315.001 1518.4 313.657 1521.49 312.076C1525.89 309.814 1529.85 306.591 1531.41 301.759Z"/>
	<path fill="#4C4C54" transform="scale(0.117188 0.117188)" d="M753.243 426.159C755.558 428.501 755.193 447.587 755.927 452.134Q752.696 452.147 749.468 452.296C742.58 452.662 736.921 454.653 732.302 459.998C720.273 473.915 724.907 503.703 726.219 520.616Q722.142 520.728 718.064 520.792C712.206 520.88 704.756 521.753 700.236 517.364C703.623 493.052 701.834 453.837 701.061 428.505C706.419 427.996 712.405 427.086 717.763 427.487C726.125 428.114 722.24 434.752 725.983 439.106C731.257 437.869 736.89 433.063 741.785 430.505C745.374 428.629 749.401 427.422 753.243 426.159Z"/>
	<path fill="#00927E" transform="scale(0.117188 0.117188)" d="M456.039 445.819Q483.682 454.604 510.89 464.656C501.464 484.158 495.999 506.058 489.638 526.709C488.41 532.514 486.086 538.396 484.242 544.051C475.6 535.281 467.505 524.532 462.053 513.458C452.351 493.753 448.893 466.858 456.039 445.819Z"/>
	<path fill="#4C4C54" transform="scale(0.117188 0.117188)" d="M1138.85 408.497C1143.35 408.062 1147.82 407.934 1152.25 409.042C1155.5 409.853 1159.05 411.5 1160.63 414.637C1162.69 418.739 1160.75 423.355 1159.5 427.403C1164.77 428.102 1170.81 428.674 1175.58 431.111C1178.35 432.523 1179.35 434.042 1180.26 436.918C1179.94 439.777 1178.5 442.112 1176.55 444.174C1172.07 448.929 1165.4 448.097 1159.38 448.252C1163.3 461.981 1158 476.485 1159.64 490.279C1160.81 500.031 1174.87 499.177 1180.77 504.699C1182.63 506.435 1182.52 507.614 1182.42 509.909C1180.92 512.38 1179.74 513.999 1177.35 515.721C1177.33 515.911 1177.34 516.106 1177.29 516.29C1176.74 518.296 1174.37 519.993 1172.59 520.825C1161.7 525.911 1146.1 514.67 1135.99 511.153L1135.09 510.847C1135.67 509.31 1136.09 507.771 1136.36 506.151C1138.3 494.601 1139.96 459.667 1133.12 450.162C1130.74 448.931 1128.12 447.716 1125.93 446.175C1120.77 442.549 1123.63 435.598 1122.83 430.354C1122.79 430.143 1122.76 429.933 1122.72 429.722C1126.94 429.203 1131.03 428.875 1134.37 426.048C1136.62 422.987 1135.42 418.453 1135.58 414.843C1135.72 411.544 1136.47 410.655 1138.85 408.497Z"/>
	<path fill="#00927E" transform="scale(0.117188 0.117188)" d="M512.335 490.341C519.196 491.793 526.275 495.174 532.93 497.601Q549.122 503.54 565.549 508.795C556.076 527.723 548.778 547.538 539.749 566.647L538.819 568.326C537.366 569.075 535.908 569.723 534.257 569.829C520.598 570.708 499.587 556.323 489.928 547.453C498.225 528.724 503.851 508.941 512.335 490.341Z"/>
	<path fill="#00927E" transform="scale(0.117188 0.117188)" d="M616.786 504.683C628.438 506.971 640.227 514.06 650.786 519.43C627.81 550.137 607.591 564.129 569.568 571.986C562.039 572.239 554.47 571.9 546.939 571.714C557.21 551.99 565.924 531.181 575.143 510.936C587.349 515.173 599.188 520.098 611.08 525.137C612.437 518.147 614.458 511.402 616.786 504.683Z"/>
	<path fill="#202221" transform="scale(0.117188 0.117188)" d="M1362.75 429.499Q1364.29 429.26 1365.84 429.127C1380.1 427.894 1393.27 430.714 1404.35 440.328C1411.26 446.333 1418.71 456.664 1419.27 466.119C1419.44 468.984 1418.78 471.97 1416.68 474.064C1408.18 482.563 1351.31 478.508 1336.46 478.025C1340.8 481.383 1342.91 487.068 1345.32 491.827C1349.67 500.414 1355.58 511.259 1365.45 514.294C1370.33 515.794 1377.65 515.207 1382.15 512.856C1392 510.629 1400.01 501.819 1409.83 500.719C1410.06 500.694 1410.29 500.681 1410.52 500.662L1410.18 500.561L1411.37 502.088C1410.19 505.865 1406.51 509.224 1403.54 511.662C1394.09 519.411 1381.71 522.155 1369.67 520.756C1358.04 519.403 1347.13 513.856 1339.85 504.576C1332.11 494.711 1328.95 480.437 1330.65 468.077C1334.2 442.369 1345.55 442.901 1362.07 430.04L1362.75 429.499ZM1363.63 437.499C1342.81 450.2 1345.67 462.19 1335.13 469.936C1350.26 470.689 1365.73 469.754 1380.75 470.98C1386.9 471.334 1402.21 474.051 1406.75 469.645C1408.51 467.936 1409.07 465.798 1408.89 463.398C1408.37 456.513 1401.07 448.838 1395.96 444.849C1386.3 437.303 1375.42 436.105 1363.63 437.499Z"/>
	<path fill="#202221" transform="scale(0.117188 0.117188)" d="M398.922 483.726C399.137 483.851 399.357 483.966 399.565 484.102C404.629 487.405 406.321 506.333 407.681 512.514C409.13 519.102 410.677 525.938 413.485 532.104C433.348 575.714 490.289 600.238 533.258 613.003C676.243 655.481 862.143 649.052 1009.55 628.763C1039.68 624.615 1070.04 620.021 1099.97 614.584C1116.43 611.592 1132.68 607.618 1149.22 604.984C1153.86 604.245 1160.01 602.967 1164.09 605.567L1162.34 607.626C1161.89 608.149 1161.85 608.248 1161.18 608.683C1152.77 614.126 1099.92 620.523 1087.09 622.456C1056.65 627.043 1026.19 632.215 995.627 635.867Q947.159 641.242 898.478 644.093C797.74 650.992 695.666 652.747 595.985 634.313C533.604 622.776 454.343 601.582 416.675 546.536C404.588 528.873 394.804 505.458 398.922 483.726Z"/>
	<path fill="#00927E" transform="scale(0.117188 0.117188)" d="M622.932 391.739C623.593 391.874 624.246 392.024 624.889 392.233C636.383 395.972 646.508 413.231 651.737 423.364C667.687 454.274 665.67 478.934 655.399 511.325L635.64 501.84Q614.026 492.186 592.235 482.938Q601.18 461.808 611.495 441.312L600.946 436.88C609.951 423.231 614.514 405.996 622.932 391.739Z"/>
	<path fill="#4C4C54" transform="scale(0.117188 0.117188)" d="M803.768 427.346C815.17 426.476 827.288 429.313 836.539 436.154Q837.489 436.866 838.402 437.625Q839.315 438.383 840.19 439.186Q841.065 439.988 841.899 440.833Q842.733 441.678 843.524 442.563Q844.316 443.448 845.063 444.371Q845.809 445.293 846.51 446.252Q847.21 447.211 847.862 448.203Q848.514 449.195 849.117 450.218Q849.719 451.241 850.27 452.292Q850.821 453.343 851.32 454.421Q851.818 455.498 852.263 456.599Q852.708 457.7 853.098 458.821Q853.488 459.942 853.822 461.081Q854.156 462.22 854.434 463.375Q854.711 464.529 854.931 465.695Q855.152 466.862 855.314 468.038C856.916 480.258 853.035 492.97 845.364 502.55C837.69 512.136 824.046 519.896 811.694 521.207C798.471 521.165 785.871 518.736 775.03 510.598C765.458 503.412 758.818 492.952 757.278 481.014C755.734 469.047 758.168 455.544 765.665 445.897C774.97 433.922 789.327 429.199 803.768 427.346ZM800.22 450.1C792.425 453.52 786.482 457.57 783.329 465.804C781.005 471.874 781.494 478.85 784.18 484.719C786.917 490.699 791.665 495.177 797.879 497.36C802.557 499.002 806.951 499.312 811.819 498.565C819.537 495.507 823.797 491.983 829.113 485.684C830.805 476.647 831.844 468.008 826.417 459.86C823.064 454.827 817.616 451.498 811.719 450.322C807.903 449.56 804.071 449.786 800.22 450.1Z"/>
	<path fill="#00927E" transform="scale(0.117188 0.117188)" d="M552.659 367.369C575.874 363.611 596.38 374.096 615.965 384.934C607.165 400.378 599.934 417.305 592.251 433.354Q563.433 419.398 534.022 406.74C530.689 414.895 526.909 422.9 523.309 430.941C520.541 439.465 517.08 447.85 513.925 456.242C495.201 450.194 476.688 443.231 458.124 436.693C462.197 426.746 467.393 416.907 473.98 408.389C493.209 383.522 522.15 371.326 552.659 367.369Z"/>
	<path fill="#4C4C54" transform="scale(0.117188 0.117188)" d="M913.249 426.159C927.285 424.959 935.606 432.947 945.635 441.395C954.264 434.312 963.024 427.797 974.683 427.409C983.084 427.129 991.484 428.873 997.638 434.918C1016.58 453.523 1010.41 496.253 1010.58 520.499C1002.69 521.084 994.82 520.641 987 519.62C982.784 498.623 987.137 477.335 983.265 456.106C978.595 452.67 973.293 449.388 967.242 449.973C963.518 450.332 960.336 452.362 958.033 455.255C949.023 466.57 950.1 487.2 951.562 500.776L952.352 519.832L926.018 519.865C927.462 501.913 932.762 474.07 923.505 457.921C921.564 454.536 918.646 451.773 914.761 450.876C907.974 449.308 901.992 452.537 896.412 455.943C890.952 477.106 891.961 498.383 892.262 520.011C885.012 520.025 874.876 521.046 868.13 518.14C862.73 509.402 866.335 443.831 865.923 428.374C871.121 428.195 879.599 426.95 884.359 428.656C888.103 429.997 888.783 432.316 890.359 435.592C896.399 437.208 907.179 428.598 913.249 426.159Z"/>
	<path fill="#4C4C54" transform="scale(0.117188 0.117188)" d="M1025.19 401.517C1031.32 400.783 1037.89 399.807 1043.62 402.638C1058.47 409.968 1045.29 428.189 1048.65 437.762C1055.79 438.058 1067.7 424.556 1086.14 427.533C1096.46 429.2 1105.49 435.502 1111.47 443.963Q1112.22 445.043 1112.92 446.159Q1113.62 447.274 1114.26 448.422Q1114.9 449.571 1115.48 450.749Q1116.07 451.927 1116.6 453.132Q1117.12 454.338 1117.59 455.567Q1118.06 456.797 1118.47 458.047Q1118.87 459.298 1119.22 460.568Q1119.57 461.837 1119.85 463.121Q1120.13 464.406 1120.35 465.703Q1120.57 467 1120.73 468.306Q1120.89 469.612 1120.98 470.924Q1121.07 472.237 1121.1 473.552Q1121.13 474.867 1121.1 476.182Q1121.06 477.497 1120.96 478.809Q1120.86 480.121 1120.7 481.426Q1120.54 482.731 1120.31 484.027C1118.94 492.193 1115.17 502.541 1108.22 507.508C1107.34 509.819 1105.28 511.931 1103.39 513.474C1098.45 517.5 1093.01 519.608 1086.77 520.585C1065.67 523.887 1062.52 513.365 1049.13 512.05L1048.43 512.969C1048.08 513.408 1047.73 513.838 1047.4 514.288C1046.59 515.39 1045.87 516.587 1044.83 517.496C1039.23 522.394 1030.63 520.675 1023.85 520.258C1024.27 505.728 1021.6 405.793 1025.19 401.517ZM1064.91 450.488C1057.5 455.32 1051.56 460.177 1049.53 469.313C1047.92 476.586 1049.72 484.637 1053.85 490.778C1056.81 495.178 1061.44 498.985 1066.74 500.051C1070.21 500.747 1075.95 500.603 1079.17 499.017C1085.86 497.251 1091.48 494.065 1095.1 487.946C1098.35 482.43 1098.87 475.752 1097.21 469.629Q1097.03 468.996 1096.82 468.373Q1096.61 467.749 1096.37 467.137Q1096.13 466.525 1095.86 465.925Q1095.6 465.325 1095.3 464.739Q1095 464.153 1094.67 463.583Q1094.34 463.013 1093.99 462.459Q1093.63 461.906 1093.25 461.37Q1092.87 460.835 1092.46 460.319Q1092.05 459.803 1091.62 459.308Q1091.19 458.813 1090.73 458.34Q1090.28 457.866 1089.8 457.416Q1089.32 456.966 1088.82 456.54Q1088.32 456.114 1087.79 455.713Q1087.27 455.313 1086.73 454.938Q1086.19 454.564 1085.63 454.216Q1085.07 453.869 1084.5 453.549C1078.44 450.124 1071.7 449.385 1064.91 450.488Z"/>
	<path fill="#00927E" transform="scale(0.117188 0.117188)" d="M1564.3 299.849C1570.95 299.951 1577.35 300.02 1583.89 301.398C1586.87 303.786 1588.21 307.59 1589.73 310.984L1592.78 315.702L1590.56 316.562C1592.63 321.066 1602.95 322.08 1606.88 326.592C1612.43 323.966 1618.93 321.212 1621.79 315.359C1621.91 315.122 1621.96 314.86 1622.04 314.61C1626.62 317.769 1631.79 321.098 1632.77 327.035C1633.2 329.623 1632.29 332.24 1630.64 334.233C1628.71 336.549 1626.13 338.186 1623.51 339.587C1628.12 342.633 1629.91 349.239 1634.28 351.705C1639.39 354.594 1646.66 350.806 1651.08 354.541C1653.46 356.556 1655.03 357.958 1656.07 361.002C1655.81 364.057 1655.22 366.159 1652.79 368.239C1650.04 370.601 1646.25 371.952 1642.93 373.329C1645.35 377.385 1644.18 386.551 1643.13 391.023C1642.96 391.756 1642.72 392.35 1642.43 393.042C1646.09 394.88 1653.08 397.712 1654.1 401.963C1654.23 402.472 1654.2 402.613 1654.18 403.074L1654.58 406.001C1654.17 408.462 1654.04 409.802 1651.98 411.514C1649.02 413.99 1641.72 413.381 1637.87 413.684C1631.33 424.541 1621.51 431.927 1609.13 435.025Q1608.54 435.174 1607.94 435.306C1601.85 432.752 1595.94 431.513 1589.62 434.04C1581.41 437.32 1575.56 444.604 1568.76 449.934C1566.56 451.542 1564.88 452.674 1562.14 453.269C1558.95 451.392 1558.22 448.123 1555.54 445.551C1555.39 445.412 1555.24 445.278 1555.09 445.141C1550.04 440.896 1540.74 439.737 1534.46 438.31C1534.44 439.313 1533.88 440.529 1533.47 441.435C1532.13 444.393 1529.84 447.93 1526.6 448.929C1523.66 449.839 1520.44 448.949 1517.84 447.456C1503.39 439.134 1520.38 428.216 1517.06 417.403C1515.41 412.025 1510.51 408.198 1505.78 405.641C1502.7 406.927 1497.81 408.931 1494.49 408.458C1490.98 407.958 1489.32 396.201 1486.36 392.589L1485.8 391.913C1489.54 391.093 1493.85 390.361 1497.24 388.531C1501.09 386.456 1504.35 382.721 1505.56 378.484C1506.53 375.105 1505.94 371.408 1504.14 368.404C1500.51 362.328 1493.59 359.718 1487.06 358.165C1488.64 357.078 1490.24 355.96 1491.6 354.603C1495.04 351.151 1497.01 347.569 1496.97 342.649C1502.71 344.68 1507.53 347.039 1511.92 351.322C1516.12 348.295 1520.16 344.984 1523.12 340.685C1525.6 337.085 1527.44 332.638 1526.52 328.201C1525.42 322.831 1521.24 319.97 1516.89 317.217C1521.92 315.323 1529.45 308.74 1532.99 308.244C1534.09 308.089 1535.42 308.861 1536.22 309.601C1539.48 312.608 1542.94 318.013 1543.19 322.512C1550.13 321.529 1557.77 320.787 1563.8 316.903C1565.98 315.502 1567.83 313.597 1568.28 310.955C1568.97 306.934 1566.54 302.965 1564.3 299.849ZM1562.55 337.499C1547.45 347.405 1531.31 351.771 1527.16 371.697C1524.5 384.478 1527.21 399.09 1534.38 409.977C1541.21 420.342 1552.32 428.439 1564.63 430.705C1570.13 431.719 1579.02 432.191 1584.18 429.822C1597.29 426.736 1609.51 420.773 1616.83 408.921Q1617.43 407.925 1617.99 406.9Q1618.54 405.875 1619.04 404.823Q1619.55 403.772 1620 402.698Q1620.45 401.623 1620.84 400.528Q1621.24 399.432 1621.58 398.319Q1621.92 397.205 1622.21 396.076Q1622.5 394.947 1622.73 393.805Q1622.96 392.663 1623.13 391.511Q1623.31 390.359 1623.43 389.2Q1623.54 388.041 1623.6 386.877Q1623.66 385.714 1623.67 384.548Q1623.67 383.383 1623.61 382.22Q1623.56 381.056 1623.45 379.896Q1623.33 378.737 1623.16 377.584Q1622.99 376.431 1622.77 375.288Q1622.54 374.145 1622.26 373.015C1619.31 361.232 1611.58 350.205 1601.03 344.055C1589.42 337.288 1575.68 335.883 1562.55 337.499Z"/>
</svg>
