<?xml version="1.0" encoding="utf-8" ?>
<svg xmlns="http://www.w3.org/2000/svg" xmlns:xlink="http://www.w3.org/1999/xlink" width="78" height="39">
	<path fill="#B8B6B3" transform="scale(0.0385674 0.0385674)" d="M1124.77 772.123C1124.61 772.234 1124.46 772.365 1124.29 772.457C1118.7 775.479 1080.61 776.507 1071.99 776.917C941.245 783.127 806.253 766.351 683.414 719.986C595.424 686.775 511.277 637.715 471.023 548.196C454.57 511.606 454.148 471.315 468.458 434.021C490.563 376.411 556.081 321.49 612.369 296.406C612.248 296.578 612.134 296.755 612.008 296.923C605.774 305.229 590.427 311.188 581.532 317.188C572.235 323.459 563.038 330.143 554.029 336.825C538.586 348.277 527.384 365.662 511.733 376.433L512.194 377.08L515.035 377.474L515.086 379.247C489.552 403.754 473.322 446.334 472.541 481.434C471.479 529.148 496.048 579.738 528.834 613.725C608.866 696.687 759.628 746.284 871.289 764.251C921.166 772.277 975.478 775.756 1026.02 776.476C1042.92 776.717 1118.09 770.111 1124.77 772.123Z"/>
	<defs>
		<linearGradient id="gradient_0" gradientUnits="userSpaceOnUse" x1="703.55072" y1="792.67932" x2="1315.5697" y2="201.30562">
			<stop offset="0" stop-color="#C9C7C6"/>
			<stop offset="1" stop-color="#F9F9F8"/>
		</linearGradient>
	</defs>
	<path fill="url(#gradient_0)" transform="scale(0.0385674 0.0385674)" d="M612.369 296.406C620.294 290.039 639.369 283.015 649.127 278.822C731.666 243.354 818.945 225.568 908.262 218.52C943.444 215.744 979.04 215.683 1014.3 216.615C1105.85 219.034 1196.21 230.586 1283.28 260.092C1292.76 263.303 1319.73 270.911 1326.78 276.936C1332.26 278.147 1348.25 283.037 1351.64 287.272C1365.52 290.61 1398.75 308.907 1410.54 317.709L1411 318.883C1426.58 322.77 1482.96 366.863 1492.97 381.088C1493.45 381.77 1493.55 382.388 1493.72 383.184C1496.41 384.837 1497.34 385.155 1498.63 388.161C1503.12 390.607 1506.94 395.095 1509.51 399.46L1509.61 401.098C1514.08 403.805 1523.55 415.518 1524.6 420.734C1524.68 421.147 1524.64 421.765 1524.63 422.152C1529.32 424.544 1533.6 433.807 1535.77 438.503L1535.64 441.053C1539.12 443.917 1542.65 449.662 1543 454.256C1543.06 454.973 1542.85 455.494 1542.6 456.15C1546.75 459.02 1549.11 467.579 1550.06 472.361C1550.39 474.056 1550.34 475.389 1549.76 477.036C1554.14 481.057 1555.43 495.346 1555.66 500.995C1555.74 502.892 1555.39 504.398 1554.61 506.121C1558.87 513.962 1555.44 532.543 1553.12 540.835C1552.57 542.814 1551.76 544.31 1550.42 545.849C1552.21 550.169 1547.71 560.49 1545.91 564.826C1516.32 636.434 1433.46 683.946 1364.85 712.191C1302.66 737.793 1239.21 753.957 1173.11 765.604C1158.01 768.265 1140.1 772.547 1124.77 772.123C1118.09 770.111 1042.92 776.717 1026.02 776.476C975.478 775.756 921.166 772.277 871.289 764.251C759.628 746.284 608.866 696.687 528.834 613.725C496.048 579.738 471.479 529.148 472.541 481.434C473.322 446.334 489.552 403.754 515.086 379.247L515.035 377.474L512.194 377.08L511.733 376.433C527.384 365.662 538.586 348.277 554.029 336.825C563.038 330.143 572.235 323.459 581.532 317.188C590.427 311.188 605.774 305.229 612.008 296.923C612.134 296.755 612.248 296.578 612.369 296.406Z"/>
	<path fill="#E2E2E0" transform="scale(0.0385674 0.0385674)" d="M1480.41 384.505L1481.42 384.667L1482.37 386.485L1480.41 384.505Z"/>
	<path fill="#E2E2E0" transform="scale(0.0385674 0.0385674)" d="M1489.03 399.507L1489.66 399.948L1489.32 402.448L1489.03 399.507Z"/>
	<path fill="#E2E2E0" transform="scale(0.0385674 0.0385674)" d="M1498.63 388.161C1503.12 390.607 1506.94 395.095 1509.51 399.46L1509.61 401.098L1510.37 403.76C1510.22 403.681 1510.09 403.573 1509.94 403.524C1504.38 401.733 1499.72 395.462 1496.09 391.064L1496.26 389.435L1498.63 388.161Z"/>
	<path fill="#E2E2E0" transform="scale(0.0385674 0.0385674)" d="M1326.78 276.936C1332.26 278.147 1348.25 283.037 1351.64 287.272L1351.85 288.92C1344.57 289.523 1332.66 282.091 1326.44 278.376L1326.78 276.936Z"/>
	<path fill="#E2E2E0" transform="scale(0.0385674 0.0385674)" d="M1524.63 422.152C1529.32 424.544 1533.6 433.807 1535.77 438.503L1535.64 441.053C1536.05 442.574 1536.26 442.955 1535.8 444.505C1535.38 444.34 1535.28 444.313 1534.84 444.07C1529.98 441.347 1524.78 428.546 1523.41 423.225L1524.63 422.152Z"/>
	<path fill="#E2E2E0" transform="scale(0.0385674 0.0385674)" d="M1549.76 477.036C1550.36 479.165 1550.42 481.328 1550.57 483.524C1550.17 483.263 1550.06 483.224 1549.73 482.791C1546.56 478.603 1540.91 462.374 1541.2 457.213L1542.6 456.15C1546.75 459.02 1549.11 467.579 1550.06 472.361C1550.39 474.056 1550.34 475.389 1549.76 477.036Z"/>
	<path fill="#E2E2E0" transform="scale(0.0385674 0.0385674)" d="M1550.42 545.849C1549.29 545.587 1549.33 545.332 1548.62 544.474C1548.96 540.503 1550.85 537.484 1551.48 533.726C1552.61 526.876 1550.5 511.093 1554.61 506.121C1558.87 513.962 1555.44 532.543 1553.12 540.835C1552.57 542.814 1551.76 544.31 1550.42 545.849Z"/>
	<path fill="#575453" transform="scale(0.0385674 0.0385674)" d="M1061.34 747.079C1067.84 744.307 1080.57 745.014 1087.84 744.331C1097.7 743.405 1107.6 742.577 1117.4 741.14C1121.94 740.475 1126.76 738.818 1131.26 738.55C1132.7 738.465 1134.27 739.033 1135.6 739.501C1137.99 739.688 1140.89 739.315 1142.65 740.96L1142.75 741.707C1116.37 744.546 1087.9 748.66 1061.34 747.079Z"/>
	<path fill="#E2E2E0" transform="scale(0.0385674 0.0385674)" d="M1411 318.883C1426.58 322.77 1482.96 366.863 1492.97 381.088C1493.45 381.77 1493.55 382.388 1493.72 383.184L1494.27 385.391L1493.3 386.473C1485.79 381.836 1481.89 378.441 1477.71 370.521L1479.18 368.483C1478.31 368.864 1477.39 369.321 1476.47 369.561C1472.34 370.637 1467.47 360.729 1464.51 358.368C1462.56 356.811 1460.86 357.965 1458.77 357.429C1457.31 357.055 1440.2 341.249 1434.94 338.349C1433.07 339.535 1431.82 340.527 1429.52 340.347L1430.92 338.665L1429.38 340.101C1429.03 327.156 1413.42 329.687 1409.6 319.844L1411 318.883Z"/>
	<defs>
		<linearGradient id="gradient_1" gradientUnits="userSpaceOnUse" x1="683.49524" y1="759.49725" x2="1351.1974" y2="234.74953">
			<stop offset="0" stop-color="#CECDCC"/>
			<stop offset="1" stop-color="#F9FAF9"/>
		</linearGradient>
	</defs>
	<path fill="url(#gradient_1)" transform="scale(0.0385674 0.0385674)" d="M820.397 252.45Q841.475 248.531 862.705 245.543Q883.935 242.555 905.276 240.503Q926.617 238.452 948.028 237.341Q969.438 236.23 990.877 236.062C1141.86 235.144 1312.53 271.57 1438.05 359.026C1454.42 370.434 1478.55 390.447 1489.47 406.754L1489.04 408.101C1493.19 412.197 1496.57 416.78 1500.06 421.437C1507.75 423.683 1517.47 443.636 1521.32 450.674C1536.7 478.735 1543.19 511.754 1534.14 542.924C1532.01 550.241 1526.72 567.829 1520.26 572.017C1519.26 584.173 1487.35 615.154 1477.9 623.189C1403.29 686.66 1294.2 719.107 1199.17 734.401C1180.57 737.393 1161.58 740.703 1142.75 741.707L1142.65 740.96C1140.89 739.315 1137.99 739.688 1135.6 739.501C1134.27 739.033 1132.7 738.465 1131.26 738.55C1126.76 738.818 1121.94 740.475 1117.4 741.14C1107.6 742.577 1097.7 743.405 1087.84 744.331C1080.57 745.014 1067.84 744.307 1061.34 747.079C1055.26 748.748 1046.57 747.935 1040.12 747.959C907.338 748.452 767.276 724.142 648.829 662.047C632.627 653.553 604.844 638.96 592.342 626.555C592.301 626.505 592.247 626.463 592.22 626.404C591.3 624.374 591.155 623.42 589.22 622.091C588.086 622.548 586.941 622.998 585.759 623.318C581.178 624.558 576.406 620.862 572.627 618.657C572.227 618.504 571.569 618.277 571.165 618.053C567.094 615.793 562.787 610.978 559.4 607.727C537.249 586.463 519.036 560.214 508.675 531.232C496.182 496.289 497.013 460.639 513.032 426.926C537.902 374.584 586.825 338.281 637.033 312.107C649.568 305.572 662.496 299.022 675.828 294.282C681.447 290.615 689.93 288.322 696.356 285.928C736.896 270.823 777.99 260.685 820.397 252.45Z"/>
	<path fill="#E2E2E0" transform="scale(0.0385674 0.0385674)" d="M710.632 464.283C708.948 466.506 709.612 470.439 709.654 473.142L709.693 473.127C708.543 471.618 708.649 465.686 708.426 463.509C707.801 457.394 710.193 450.546 711.65 444.611C712.876 445.835 712.991 449.058 713.283 450.768C712.347 455.256 711.306 459.749 710.632 464.283Z"/>
	<path fill="#F7E8EB" transform="scale(0.0385674 0.0385674)" d="M1246.61 572.497L1248.39 573.028C1248.97 573.718 1249.5 574.451 1249.81 575.3C1251 578.496 1250.15 581.16 1249.01 584.202L1246.43 584.506C1245.2 582.671 1244.08 580.825 1243.03 578.88C1244.47 576.973 1245.59 575.342 1246.42 573.054C1246.48 572.869 1246.54 572.683 1246.61 572.497Z"/>
	<path fill="#E2E2E0" transform="scale(0.0385674 0.0385674)" d="M1321.27 575.162L1323.83 575.11L1324.27 576.378C1323.11 578.502 1321.87 580.142 1320.21 581.904L1320.5 582.673C1321.53 585.438 1322.13 588.317 1320.93 591.155C1320.19 592.899 1318.92 594.281 1317.13 594.95C1317 594.998 1316.87 595.022 1316.73 595.057C1315.46 593.983 1315.41 592.589 1314.97 591.007C1316.57 590.86 1317.67 590.745 1319.1 589.887L1318.03 587.94C1317.55 587.692 1317.33 587.622 1316.92 587.18C1315.63 585.776 1315.41 583.049 1315.87 581.27C1316.73 577.927 1318.51 576.792 1321.27 575.162Z"/>
	<path fill="#E2E2E0" transform="scale(0.0385674 0.0385674)" d="M1212.63 423.056C1212.95 421.261 1213.36 419.566 1213.89 417.825C1217.81 419.287 1223.75 423.059 1225.75 426.849C1226.01 427.348 1226 427.481 1226.06 427.968L1224.55 428.313L1223.25 427.217L1222.31 428.779L1225.26 431.66C1224.53 432.032 1223.77 432.493 1222.98 432.72C1219.65 429.298 1216.37 426.048 1212.63 423.056Z"/>
	<path fill="#F7E8EB" transform="scale(0.0385674 0.0385674)" d="M1232.48 565.496C1234.94 565.436 1238.6 565.938 1240.72 567.261C1242.92 568.633 1243.3 569.488 1243.85 571.906C1242.56 574.431 1241.71 574.972 1239.44 576.515C1237.62 577.776 1235.26 577.797 1233.14 577.821C1231.41 576.47 1230.22 575.563 1230.1 573.145C1229.93 569.899 1230.5 567.927 1232.48 565.496Z"/>
	<path fill="#F7E8EB" transform="scale(0.0385674 0.0385674)" d="M1230.23 581.5C1233.65 581.371 1237.18 581.117 1240.36 582.588C1243.09 583.85 1243.94 585.059 1245 587.787C1244.59 591.04 1243.82 592.233 1241.6 594.504C1239.55 596.307 1232.47 595.495 1229.48 595.51C1230.83 590.872 1230.49 586.248 1230.23 581.5Z"/>
	<path fill="#475663" transform="scale(0.0385674 0.0385674)" d="M1308.7 572.335L1312.78 572.258C1315.08 569.5 1315.84 565.603 1318.14 562.507L1318.48 564.51L1318.24 562.4L1318.27 562.811C1318.46 565.672 1318.27 568.563 1318.17 571.425C1319.7 572.732 1320.68 573.2 1321.27 575.162C1318.51 576.792 1316.73 577.927 1315.87 581.27C1315.41 583.049 1315.63 585.776 1316.92 587.18C1317.33 587.622 1317.55 587.692 1318.03 587.94C1314.85 587.856 1311.77 587.6 1308.61 587.207C1306.42 584.507 1307.75 579.701 1307.83 576.139C1308.59 574.705 1308.66 573.907 1308.7 572.335Z"/>
	<path fill="#E2E2E0" transform="scale(0.0385674 0.0385674)" d="M1307.83 576.139L1311.91 576.48C1313.12 578.183 1314.14 579.228 1313.74 581.473C1313.5 582.82 1312.46 584.491 1311.84 585.717L1308.61 587.207C1306.42 584.507 1307.75 579.701 1307.83 576.139Z"/>
	<path fill="#060815" transform="scale(0.0385674 0.0385674)" d="M651.042 578.229C652.592 576.309 653.877 575.638 656.18 574.806C659.666 577.315 662.29 579.614 662.984 584.062C663.516 587.477 662.389 590.861 660.32 593.572C657.897 596.749 653.642 599.379 649.612 599.735C647.016 599.965 644.357 599.491 642.35 597.73C641.935 597.366 641.772 597.184 641.412 596.811L641.332 593.464C646.21 591.537 653.096 599.573 656.762 589.826C657.513 587.829 657.577 585.118 656.545 583.202C655.479 581.222 652.891 579.399 651.042 578.229Z"/>
	<path fill="#092239" transform="scale(0.0385674 0.0385674)" d="M642.139 558.469C647.583 558.483 655.263 557.686 660.403 559.285C661.25 559.549 661.287 560.233 661.658 560.992C658.701 565.948 651.979 561.303 647.593 564.053C646.822 567.015 646.966 569.356 647.258 572.36C649.818 574.519 652.912 574.353 656.18 574.806C653.877 575.638 652.592 576.309 651.042 578.229L641.804 578.752L642.139 558.469Z"/>
	<path fill="#F7E8EB" transform="scale(0.0385674 0.0385674)" d="M1204.23 579.499C1205.9 579.397 1207.78 579.203 1209.42 579.547C1211.63 580.012 1213.72 582.084 1214.87 583.969C1215.97 585.777 1216.15 587.991 1215.53 590.005C1214.68 592.802 1212.82 594.138 1210.44 595.51C1207.95 595.577 1205.24 595.838 1203.14 594.254C1201.1 592.717 1200.19 590.565 1200.11 588.08C1199.99 584.191 1201.79 582.169 1204.23 579.499Z"/>
	<path fill="#F7E8EB" transform="scale(0.0385674 0.0385674)" d="M1089.23 579.5C1090.83 579.41 1092.52 579.254 1094.12 579.37C1096.77 579.564 1098.72 580.803 1100.32 582.9C1101.82 584.861 1102.26 586.985 1101.71 589.37C1101.04 592.24 1098.86 594.138 1096.44 595.526L1095.41 596.211C1093.32 596.371 1092.08 596.807 1090.28 595.558C1088.13 594.066 1087.16 590.777 1086.72 588.303C1086.05 584.48 1087.11 582.494 1089.23 579.5Z"/>
	<path fill="#B51C20" transform="scale(0.0385674 0.0385674)" d="M863.136 559.652L864.683 560.37C864.841 560.729 865.152 561.38 865.264 561.8C866.584 566.744 866.886 595.928 864.91 600.029L863.364 600.179C861.303 598.261 861.403 598.075 861.051 595.25C860.898 586.051 861.811 576.725 860.501 567.588C858.302 566.642 856.015 570.159 853.352 570.723L853.334 568.168C855.183 564.452 859.803 561.985 863.136 559.652Z"/>
	<path fill="#E2E2E0" transform="scale(0.0385674 0.0385674)" d="M920.743 578.579C923.442 578.379 925.532 579.734 927.571 581.31C928.95 583.524 929.632 585.225 929.454 587.864C929.198 591.654 927.443 593.705 924.651 596.064C922.353 595.962 919.405 595.842 917.319 594.758C914.661 593.378 912.251 590.344 911.638 587.38C911.263 585.569 911.759 583.286 912.893 581.814C915.071 578.988 917.504 579.141 920.743 578.579Z"/>
	<path fill="#39526B" transform="scale(0.0385674 0.0385674)" d="M1305.46 591.832C1305.72 592.778 1305.94 593.621 1305.93 594.611C1305.91 596.736 1306.1 597.779 1304.52 599.339C1303.37 598.397 1302.66 597.49 1302.16 596.069C1300.67 591.86 1301.7 589.773 1303.38 585.993C1304.53 583.402 1304.34 580.493 1303.25 577.917C1303.19 577.78 1302.56 576.351 1302.5 576.156C1301.5 573.171 1303.89 573.119 1305.22 571.105C1306.5 569.165 1306.22 565.06 1307.75 562.486L1309.06 562.447C1310.13 565.34 1309.11 569.305 1308.7 572.335C1308.66 573.907 1308.59 574.705 1307.83 576.139C1307.75 579.701 1306.42 584.507 1308.61 587.207C1311.77 587.6 1314.85 587.856 1318.03 587.94L1319.1 589.887C1317.67 590.745 1316.57 590.86 1314.97 591.007C1314.58 594.313 1314.73 597.702 1312.78 600.43C1310.86 599.736 1310.62 599.452 1309.34 597.837L1308.8 599.104L1307.66 599.305C1307.21 596.594 1306.53 594.358 1305.46 591.832Z"/>
	<path fill="#E2E2E0" transform="scale(0.0385674 0.0385674)" d="M1305.46 591.832L1309.6 590.783L1311.23 591.917C1311.02 594.281 1310.51 595.779 1309.34 597.837L1308.8 599.104L1307.66 599.305C1307.21 596.594 1306.53 594.358 1305.46 591.832Z"/>
	<path fill="#F7E8EB" transform="scale(0.0385674 0.0385674)" d="M1068.77 577.845C1070.48 577.113 1072.07 576.827 1072.95 575.049C1074.19 572.536 1072.87 569.636 1074.62 567.42C1076.29 567.482 1076.87 568.405 1078.12 569.469C1078.74 571.023 1079.47 572.444 1079.38 574.157L1083.47 570.755L1084.28 571.072C1083.81 576.684 1081.41 585.653 1083.08 590.971C1083.92 593.653 1087.67 597.423 1086.56 600.102C1084.1 597.689 1082.67 594.925 1080.47 592.424C1076.97 588.442 1071.4 587.324 1069.68 581.818C1069.38 580.852 1068.8 580.257 1068.14 579.507L1067.31 585.363L1065.57 586.44C1062.84 586.501 1061.62 586.869 1059.32 585.256C1059.02 582.741 1059.29 581.108 1060.59 578.868C1062.29 575.932 1063.5 575.501 1066.74 574.758C1068.43 575.771 1068.25 576.025 1068.77 577.845Z"/>
	<path fill="#092239" transform="scale(0.0385674 0.0385674)" d="M771.938 559.897C777.767 559.776 784.151 559.106 789.867 560.348L790.57 562.813C787.121 565.67 781.848 563.372 777.558 567.293C777.091 568.798 776.58 570.26 776.757 571.852C777.327 576.999 787.36 577.29 790.968 580.846C791.932 581.796 793.071 583.795 793.1 585.185C793.203 590.083 789.632 594.536 786.381 597.837C783.278 598.989 779.624 600.524 776.289 599.547C773.602 598.76 771.7 598.376 770.356 595.883C774.442 595.173 779.571 594.683 783.342 593.002C785.741 591.933 786.336 590.989 787.195 588.69C786.782 587.033 786.267 585.567 785.195 584.221C781.857 580.032 776.789 580.03 771.88 579.478L771.938 559.897Z"/>
	<path fill="#092239" transform="scale(0.0385674 0.0385674)" d="M707.051 558.968C711.83 558.997 717.114 558.627 721.827 559.307C723.931 559.611 724.776 559.898 726.072 561.612C723.424 565.995 717.924 562.967 713.506 564.179C713.108 564.774 712.769 565.219 712.649 565.945C712.209 568.606 712.193 572.358 713.632 574.585L718.255 575.427C722.546 577.888 725.539 579.797 726.853 584.859C727.658 587.958 727.474 591.107 725.641 593.846C723.674 596.785 720.134 598.435 716.723 598.965C713.226 599.508 709.332 598.914 705.943 597.963L705.395 596.415C710.402 595.349 718.264 594.645 721.231 589.989C721.76 589.16 721.755 587.529 721.59 586.587C721.238 584.585 719.638 582.475 717.888 581.481C716.148 580.493 713.974 579.931 712.063 579.346C710.082 579.632 709.658 579.875 707.819 578.948C705.654 573.016 706.869 565.242 707.051 558.968Z"/>
	<path fill="#475663" transform="scale(0.0385674 0.0385674)" d="M1438.53 564.494C1440.05 564.517 1441.45 564.174 1442.58 565.391C1445.97 569.037 1453 594.858 1452.45 599.64C1449.21 599.303 1448.18 593.526 1445.84 591.177C1444.23 589.552 1441.9 590.112 1439.75 590.12C1432.21 589.717 1434.26 596.885 1429.21 600.223L1428.07 599.314C1430.05 587.628 1435.82 576.809 1438.37 565.253L1438.53 564.494Z"/>
	<path fill="#E2E2E0" transform="scale(0.0385674 0.0385674)" d="M1439.17 573.494L1441.37 574.098Q1442.43 576.013 1443.38 577.982C1444.6 580.545 1444.67 582.547 1443.73 585.24L1440.03 585.912C1438.92 585.898 1438.13 585.612 1437.09 585.272C1436.12 582.046 1438.83 577.715 1439.12 574.151C1439.14 573.932 1439.15 573.713 1439.17 573.494Z"/>
	<path fill="#060815" transform="scale(0.0385674 0.0385674)" d="M609.742 598.533C609.48 589.759 606.206 565.808 612.079 559.316C613.305 557.96 615.295 556.998 617.139 556.99C621.314 556.972 628.231 560.379 631.216 563.157C630.478 565.509 630.493 566.702 628.341 568.173L627.198 567.309C626.405 570.388 626.023 572.33 623.354 574.312C620.659 575.114 618.155 575.585 615.365 575.893L615.288 579.249C615.012 584.93 614.817 590.537 614.982 596.227C613.615 598.057 611.888 598.018 609.742 598.533Z"/>
	<path fill="#E2E2E0" transform="scale(0.0385674 0.0385674)" d="M615.365 575.893Q615.097 573.436 614.9 570.972C614.665 567.929 614.424 565.351 616.659 562.921C617.799 561.681 618.677 562.005 620.282 561.947C623.249 563.387 625.026 564.834 627.198 567.309C626.405 570.388 626.023 572.33 623.354 574.312C620.659 575.114 618.155 575.585 615.365 575.893Z"/>
	<path fill="#475663" transform="scale(0.0385674 0.0385674)" d="M1333.87 559.194C1338.64 563.622 1350.09 591.898 1349.92 598.639C1349.91 598.974 1349.75 599.526 1349.68 599.815L1348.12 600.034C1345.2 596.512 1344.41 592.426 1340.18 590.551C1337.82 590.451 1334.83 590.08 1332.5 590.4C1329.32 590.836 1328.01 597.479 1325.84 599.994L1323.44 599.866C1322.68 594.222 1327.81 588.361 1327.48 582.466C1327.47 582.303 1327.45 582.141 1327.43 581.979C1330.72 577.588 1334.89 565.646 1334.11 560.295C1334.03 559.773 1333.99 559.655 1333.87 559.194Z"/>
	<path fill="#E2E2E0" transform="scale(0.0385674 0.0385674)" d="M1333.92 569.508C1337.27 573.207 1340.04 577.634 1339.94 582.839C1339.93 583.175 1339.88 583.509 1339.85 583.844L1339.56 585.223C1338.9 585.597 1338.36 585.926 1337.59 586.002C1334.87 586.27 1332.68 585.299 1330.47 583.843C1333.16 580.749 1334.9 576.23 1334.5 572.084C1334.41 571.202 1334.18 570.349 1333.92 569.508Z"/>
	<path fill="#475663" transform="scale(0.0385674 0.0385674)" d="M1385.1 570.157C1386.05 568.046 1386.92 566.157 1388.34 564.298L1390.51 563.537C1392.14 564.61 1392.54 565.03 1393.36 566.818C1393.87 567.921 1402.93 596.088 1403.17 597.511C1403.3 598.334 1403.08 598.896 1402.84 599.669L1400.51 600.085C1391.57 592.104 1404.66 591.078 1383.68 590.006C1381.26 592.856 1381.49 597.463 1378.68 600.774L1376.21 599.656C1378.32 590.101 1384.02 580.207 1385.05 570.726C1385.07 570.537 1385.08 570.347 1385.1 570.157Z"/>
	<path fill="#E2E2E0" transform="scale(0.0385674 0.0385674)" d="M1387.16 572.116L1389.78 571.941C1392.42 576.45 1394.5 579.685 1393.76 585.091C1392.34 585.989 1391.08 586.01 1389.46 586.129C1388.08 586.058 1386.86 585.681 1385.55 585.295C1383.97 581.096 1388.12 576.862 1387.16 572.116Z"/>
	<path fill="#092239" transform="scale(0.0385674 0.0385674)" d="M631.216 563.157C631.807 566.152 632.671 568.995 630.87 571.74C630.078 572.947 629.192 574.083 628.297 575.214C627.654 581.265 640.475 588.509 631.453 595.549C626.966 599.05 616.75 599.627 611.32 598.851C610.387 598.717 610.499 598.728 609.742 598.533C611.888 598.018 613.615 598.057 614.982 596.227C614.817 590.537 615.012 584.93 615.288 579.249L615.365 575.893C618.155 575.585 620.659 575.114 623.354 574.312C626.023 572.33 626.405 570.388 627.198 567.309L628.341 568.173C630.493 566.702 630.478 565.509 631.216 563.157Z"/>
	<path fill="#E2E2E0" transform="scale(0.0385674 0.0385674)" d="M615.288 579.249C618.976 579.636 623.839 579.793 626.469 582.816C627.971 584.543 627.812 585.382 627.886 587.553C626.595 590.449 625.178 593.006 622.054 594.289C619.863 595.189 617.292 595.68 614.982 596.227C614.817 590.537 615.012 584.93 615.288 579.249Z"/>
	<path fill="#B51C20" transform="scale(0.0385674 0.0385674)" d="M893.159 558.575L895.06 559.141C898.878 563.297 896.668 577.716 896.842 583.659C898.773 586.242 900.011 585.889 903.108 586.452L903.847 587.933L902.97 589.984L898.601 590.405C895.887 592.711 898.164 596.276 896.348 599.432L894.023 599.648C892.232 597.146 892.564 594.393 892.332 591.365L891.91 590.632C886.743 588.707 878.005 589.731 872.377 589.711C878.84 579.055 886.129 568.864 893.159 558.575Z"/>
	<path fill="#E2E2E0" transform="scale(0.0385674 0.0385674)" d="M891.164 567.635C893.003 572.193 892.253 580.526 892.364 585.545C888.453 585.735 884.44 585.538 880.519 585.529C879.946 581.973 888.815 571.046 891.164 567.635Z"/>
	<path fill="#B51C20" transform="scale(0.0385674 0.0385674)" d="M877.04 373.841C907.844 360.466 940.02 352.538 973.295 348.522L975.948 349.41L975.577 350.232C972.457 350.908 971.69 353.352 968.679 354.114C963.303 355.475 956.685 354.849 951.099 355.604C946.171 356.269 941.641 358.272 936.607 358.974L936.299 359.628C943.529 359.98 951.997 357.154 958.848 359.024L958.921 359.609C956.115 359.961 952.268 360.052 950.028 362.004C936.974 364.262 923.519 364.899 910.393 367.034C899.173 368.859 888.255 372.222 877.04 373.841Z"/>
	<path fill="#060815" transform="scale(0.0385674 0.0385674)" d="M585.925 560.945C586.665 560.443 587.343 559.931 588.059 559.402C589.03 558.684 590.161 558.343 591.288 557.945C592.975 559.715 592.925 562.546 593.285 564.874C593.363 564.426 593.432 563.976 593.532 563.532C594.141 560.831 594.571 560.328 596.804 558.866C597.685 559.835 597.441 568.521 599.852 572.702C599.947 572.867 600.046 573.029 600.143 573.193C598.456 574.033 596.624 574.845 595.145 576.025C593.296 577.5 593.275 577.534 592.995 579.767C594.259 582.13 596.417 583.28 598.593 584.715L598.39 586.156C592.088 587.833 592.304 594.99 587.031 598.188C586.67 594.413 588.879 591.781 587.621 587.924C585.876 586.359 585.79 586.365 583.441 586.266C578.555 588.685 580.117 593.345 576.718 597.317L575.393 597.259C573.062 593.86 576.66 590.791 575.447 586.899L572.597 586.016L572.009 584.507C574.731 582.967 576.636 581.576 578.72 579.223C579.173 576.965 579.129 576.864 578.075 574.811L574.808 573.94L574.51 572.453C579.488 568.816 580.087 564.846 582.444 559.569L584.327 559.28L585.925 560.945Z"/>
	<path fill="#E2E2E0" transform="scale(0.0385674 0.0385674)" d="M582.766 574.046C585.318 573.965 587.435 573.935 589.913 574.724C591.217 577.764 590.092 580.425 589.512 583.64C587.022 583.705 584.95 583.655 582.512 582.987C580.968 580.095 582.196 577.212 582.766 574.046Z"/>
	<path fill="#E2E2E0" transform="scale(0.0385674 0.0385674)" d="M585.925 560.945C586.665 560.443 587.343 559.931 588.059 559.402C589.03 558.684 590.161 558.343 591.288 557.945C592.975 559.715 592.925 562.546 593.285 564.874C593.1 566.308 592.704 567.774 592.401 569.192C590.226 570.979 589.878 571.184 587.091 571.502L584.754 569.622C583.955 565.983 584.811 564.447 585.925 560.945Z"/>
	<path fill="#475663" transform="scale(0.0385674 0.0385674)" d="M1456.49 564.499C1459.72 564.079 1463.61 563.805 1466.82 564.344C1470.9 565.029 1474.45 568.359 1476.69 571.673C1479.4 575.684 1480.3 580.228 1479.37 584.968C1478.56 589.147 1476.99 593.44 1473.33 595.869C1473.16 596.615 1472.8 597.17 1472.23 597.675C1468.87 600.631 1459.81 599.684 1455.48 599.687C1459.03 592.811 1457.76 572.426 1456.49 564.499Z"/>
	<path fill="#E2E2E0" transform="scale(0.0385674 0.0385674)" d="M1459.59 569.497C1461.48 569.14 1463.61 568.641 1465.55 568.788C1468.16 568.988 1470.46 570.61 1472.1 572.561C1474.66 575.606 1475.72 578.793 1475.36 582.761C1475.06 586.189 1474.05 589.418 1471.34 591.674C1471.08 593.275 1469.4 594.694 1468.32 595.876C1466.19 596.13 1465.72 595.821 1463.81 594.996C1457.26 588.925 1463.04 577.544 1459.86 570.078C1459.78 569.881 1459.68 569.691 1459.59 569.497Z"/>
	<path fill="#475663" transform="scale(0.0385674 0.0385674)" d="M1352.16 563.02C1355.83 562.983 1361.45 562.19 1364.7 563.9C1367.66 564.406 1369.27 564.869 1371.63 566.853C1373.06 570.099 1372.93 572.017 1372.24 575.475C1370.79 582.681 1377.79 592.808 1370.48 598.09C1366.17 601.209 1357.45 600.207 1352.32 600.051C1354.45 594.951 1354.79 585.012 1352.78 579.82C1352.69 579.579 1352.59 579.343 1352.49 579.105C1352.75 578.408 1352.76 578.418 1352.96 577.563C1353.94 573.412 1354.37 566.747 1352.16 563.02Z"/>
	<path fill="#E2E2E0" transform="scale(0.0385674 0.0385674)" d="M1356.94 579.015C1358.02 575.677 1357.3 572.26 1358.46 568.835C1360.82 567.532 1362.08 567.916 1364.7 568.12C1366.87 569.639 1368.17 570.671 1369.32 573.178C1369.19 575.39 1369.11 576.102 1367.21 577.571C1364.26 579.852 1360.89 579.335 1357.43 579.063C1357.27 579.05 1357.1 579.031 1356.94 579.015Z"/>
	<path fill="#E2E2E0" transform="scale(0.0385674 0.0385674)" d="M1356.59 584.496C1360.1 583.654 1363.79 582.967 1367.17 584.645C1369.55 585.83 1369.87 586.475 1370.58 588.852C1369.92 591.103 1369.08 592.188 1367.37 593.776C1366.36 594.895 1365.64 595.436 1364.22 596.018C1362.12 596.876 1361.96 596.848 1359.86 595.984C1357.61 592.439 1357.81 588.465 1356.59 584.496Z"/>
	<path fill="#F7E8EB" transform="scale(0.0385674 0.0385674)" d="M1154.44 576.829C1153.45 576.14 1152.66 575.904 1151.47 576.223C1149.31 576.8 1147.41 578.079 1146.27 579.992C1149.17 581.082 1150.96 579.217 1153.85 580.087C1156.01 580.738 1157.64 581.487 1159.55 582.712C1160.3 584.583 1160.77 585.31 1160.28 587.34C1159.54 590.405 1157.05 593.345 1154.41 594.988C1152.36 596.261 1150.36 596.771 1147.98 596.197C1146.69 595.274 1145.77 594.489 1145.34 592.902C1144.27 588.917 1144.67 585.987 1146.37 582.429L1144.21 581.009C1143.21 578.621 1144.43 572.378 1145.38 569.841C1146.12 567.87 1148.67 565.724 1150.66 565.053C1153.25 564.184 1154.38 564.84 1156.61 565.977C1158.19 568.122 1158.34 569.986 1158.54 572.543L1158.61 573.527C1160.36 574.845 1160.83 574.444 1162.95 574.22C1164.48 572.122 1164.18 570.824 1164.25 568.348L1165.73 570.019C1165.51 571.988 1165.35 573.955 1165.2 575.932L1167.45 576.146C1168.74 572.784 1168.92 569.876 1168.97 566.295C1169.73 570.116 1170.69 577.129 1168.49 580.51C1174.12 580.279 1179.45 579.291 1183.89 583.551C1185.03 584.641 1185.58 586.006 1186.1 587.468C1185.87 590.012 1185.35 591.768 1183.12 593.416C1181.23 594.817 1177.6 595.957 1175.23 595.486C1174.58 595.355 1174.01 595.031 1173.4 594.793C1172.86 594.584 1172.31 594.42 1171.76 594.234L1170.45 593.773L1169.51 595.14L1170.74 599.837L1169.82 600.543C1167.04 598.249 1168.08 594.97 1164.95 593.49C1163.24 595.629 1163.58 599.454 1161.22 600.093L1160.37 598.674C1162.12 594.056 1165.63 587.231 1163.26 582.402C1161.94 579.718 1158.76 577.817 1155.94 577.089C1155.34 576.936 1155.09 576.922 1154.44 576.829Z"/>
	<path fill="#092239" transform="scale(0.0385674 0.0385674)" d="M671.284 559.136C676.724 558.863 681.783 558.623 687.175 559.661C691.744 561.341 694.678 563.202 696.789 567.747C699.604 573.81 699.82 581.5 697.507 587.748C696.123 591.488 693.428 595.105 689.632 596.64C689.521 596.686 689.401 596.705 689.285 596.737C683.733 599.662 677.231 599.095 671.152 599.052L671.284 559.136Z"/>
	<path fill="#E2E2E0" transform="scale(0.0385674 0.0385674)" d="M676.958 562.63C682.474 563.416 686.612 563.857 690.22 568.522C692.928 572.023 693.94 575.936 693.296 580.301C692.595 585.047 690.88 588.788 687.617 592.27L687.136 592.791C686.836 593.112 686.524 593.421 686.211 593.728C683.09 593.987 681.405 594.506 678.558 593.11C674.332 585.704 676.928 571.169 676.958 562.63Z"/>
	<path fill="#092239" transform="scale(0.0385674 0.0385674)" d="M736.65 559.313C744.792 558.801 751.797 558.434 758.7 563.646Q759.393 564.16 760.029 564.741Q760.666 565.323 761.24 565.966Q761.814 566.61 762.319 567.308Q762.825 568.007 763.256 568.753Q763.688 569.5 764.041 570.286Q764.394 571.073 764.665 571.891Q764.937 572.71 765.123 573.552Q765.309 574.394 765.409 575.25C766.245 582.573 762.714 589.283 758.334 594.812C751.218 600.009 743.535 599.188 735.202 599.022C735.149 592.254 733.585 563.599 736.65 559.313Z"/>
	<path fill="#E2E2E0" transform="scale(0.0385674 0.0385674)" d="M740.957 563.64C744.918 563.587 748.95 563.49 752.515 565.475C755.48 567.126 757.732 569.818 758.636 573.109C760.306 579.193 757.899 585.543 755.01 590.818C753.331 592.191 751.086 593.536 749.071 594.326C746.511 595.331 745.37 595.021 742.956 594.09C738.409 587.594 740.892 571.448 740.957 563.64Z"/>
	<path fill="#B8B6B3" transform="scale(0.0385674 0.0385674)" d="M1500.06 421.437C1507.75 423.683 1517.47 443.636 1521.32 450.674C1536.7 478.735 1543.19 511.754 1534.14 542.924C1532.01 550.241 1526.72 567.829 1520.26 572.017L1519.46 571.775C1516.77 574.763 1514.26 577.836 1510.67 579.773C1506.67 578.265 1505.13 574.754 1500.74 573.933C1515.89 559.382 1526.49 526.914 1527.9 506.24C1529.79 478.367 1518.45 442.55 1500.06 421.437Z"/>
	<path fill="#5F7489" transform="scale(0.0385674 0.0385674)" d="M1280.59 417.497C1287.05 416.568 1294.58 417.683 1301.12 418.058C1301.2 418.222 1301.27 418.387 1301.35 418.55C1301.78 419.412 1302.24 420.314 1302.44 421.264C1303.97 428.592 1303.45 482.455 1302.27 491.203C1302.05 492.817 1301.4 494.179 1300.48 495.506C1297.34 495.813 1292.5 493.543 1289.89 491.859C1274.21 481.717 1284.5 435.328 1280.75 418.166C1280.7 417.943 1280.64 417.72 1280.59 417.497Z"/>
	<defs>
		<linearGradient id="gradient_2" gradientUnits="userSpaceOnUse" x1="664.3949" y1="288.63834" x2="827.00787" y2="275.15732">
			<stop offset="0" stop-color="#474442"/>
			<stop offset="1" stop-color="#646263"/>
		</linearGradient>
	</defs>
	<path fill="url(#gradient_2)" transform="scale(0.0385674 0.0385674)" d="M675.828 294.282C681.447 290.615 689.93 288.322 696.356 285.928C736.896 270.823 777.99 260.685 820.397 252.45L823.873 253.638C823.788 254.779 823.965 255.229 823.223 256.14C823.067 258.957 822.409 261.211 824.355 263.573C827.527 267.425 832.658 266.886 837.123 266.958C819.477 270.783 801.631 273.673 784.073 277.911Q757.223 284.657 730.98 293.474Q704.737 302.291 679.261 313.126L680.072 310.028C680.433 309.517 680.291 309.016 680.294 308.403C676.797 307.855 673.174 305.864 669.66 306.592C669.993 308.575 670.373 309.133 669.386 310.941C667.202 310.336 667.198 310.379 666.012 308.456C666.622 303.554 672.627 299.188 676.255 296.358L675.828 294.282Z"/>
	<path fill="#5A7E8B" transform="scale(0.0385674 0.0385674)" d="M1132.18 370.099L1132.99 368.407C1131.19 365.211 1127.08 364.383 1124.65 361.352C1127.03 362.973 1129.99 362.221 1133.36 363.008L1134.59 361.296C1166.94 369.484 1225.46 394.51 1250.86 416.058C1255.37 418.919 1265.31 423.714 1267.79 428.329C1269.8 434.248 1269.17 462.194 1266.65 467.466C1266.54 467.69 1266.41 467.903 1266.3 468.126C1266.2 468.352 1266.1 468.585 1266 468.814C1265.32 460.7 1239.47 438.023 1232.25 431.888C1230.26 430.196 1228.59 428.809 1226.06 427.968C1226 427.481 1226.01 427.348 1225.75 426.849C1223.75 423.059 1217.81 419.287 1213.89 417.825L1213.33 416.109C1190.93 396.181 1159.58 381.732 1132.18 370.099Z"/>
	<path fill="#CE4F4E" transform="scale(0.0385674 0.0385674)" d="M973.295 348.522C987.107 343.658 1036.37 345.092 1053 345.726C1060.23 346.35 1076.57 346.823 1082.66 350.028C1086.32 351.496 1092.99 353.207 1095.43 356.231C1093.76 357.354 1092.64 357.116 1090.65 357.181C1078.04 354.652 1063.05 350.479 1050.28 351.751C1053.2 353.892 1061.69 353.473 1065.77 354.23C1080.22 356.905 1094.7 361.013 1108.81 365.065C1126.32 370.092 1190.28 398.423 1198.28 414.246C1198.39 416.722 1198.49 416.973 1197.1 418.991C1194.9 418.705 1172.51 403.406 1167.94 400.933C1149.27 390.842 1128.67 382.528 1108.3 376.656Q1101.19 374.653 1094.02 372.895Q1086.84 371.138 1079.61 369.628Q1072.38 368.119 1065.1 366.859Q1057.82 365.599 1050.51 364.591Q1043.19 363.583 1035.84 362.827Q1028.5 362.071 1021.13 361.569Q1013.76 361.066 1006.37 360.818Q998.992 360.569 991.606 360.575C978.628 360.486 962.28 363.35 950.028 362.004C952.268 360.052 956.115 359.961 958.921 359.609L958.848 359.024C951.997 357.154 943.529 359.98 936.299 359.628L936.607 358.974C941.641 358.272 946.171 356.269 951.099 355.604C956.685 354.849 963.303 355.475 968.679 354.114C971.69 353.352 972.457 350.908 975.577 350.232L975.948 349.41L973.295 348.522Z"/>
	<path fill="#5F7489" transform="scale(0.0385674 0.0385674)" d="M1379.33 421.498C1388.01 420.478 1397.44 421.549 1406.18 421.857L1455.54 423.586C1456.02 424.434 1456.36 425.083 1456.62 426.029C1457.9 430.723 1457.85 438.836 1455.3 443.047Q1441.15 442.854 1427.01 442.38C1427.45 443.248 1427.76 444.083 1427.94 445.047C1429.32 452.597 1429.44 501.709 1426.35 506.492C1427.03 507.584 1427.63 508.753 1427.85 510.035C1428.95 516.209 1429.54 530.873 1426.32 536.037L1406.92 536.194C1407 536.065 1407.08 535.94 1407.14 535.809C1407.26 535.591 1407.36 535.367 1407.47 535.148C1407.8 534.479 1408.11 533.843 1408.35 533.128C1410.37 527.048 1409.52 456.919 1408.73 447.027C1408.58 445.234 1408.08 443.837 1407.19 442.279L1378.35 441.18C1381.23 436.327 1380.58 426.866 1379.33 421.498Z"/>
	<path fill="#39526B" transform="scale(0.0385674 0.0385674)" d="M1080.74 412.478C1090.5 409.969 1154.39 414.269 1170.13 414.527C1170.25 415.099 1170.37 415.527 1170.39 416.1C1170.56 420.775 1166.68 431.544 1163.46 434.978C1154.49 434.174 1145.47 434.046 1136.47 433.782C1137.1 434.781 1137.63 435.857 1137.84 437.029C1139.22 444.759 1139.31 493.581 1136.25 498.502C1136.78 499.359 1137.3 500.295 1137.56 501.275C1139.33 507.899 1139.58 526.952 1136.6 532.791L1113.62 532.079C1114.13 531.287 1114.49 530.582 1114.72 529.657C1116.61 521.923 1116.32 448.38 1115.25 437.926C1115.06 436.122 1114.55 434.68 1113.67 433.103C1102.56 432.606 1091.38 432.557 1080.26 432.295C1080.51 431.895 1080.61 431.743 1080.83 431.284C1083.13 426.515 1082.59 417.305 1080.74 412.478Z"/>
	<path fill="#CE4F4E" transform="scale(0.0385674 0.0385674)" d="M1208.98 532.86C1215.63 519.611 1207.11 427.873 1211.5 422.184L1212.63 423.056C1216.37 426.048 1219.65 429.298 1222.98 432.72C1233.61 444.072 1244.69 455.031 1255.47 466.248C1265.43 476.615 1276.09 490.174 1288.17 497.994C1292.89 501.045 1299.14 502.208 1304.36 504.277C1304.69 504.833 1304.98 505.397 1305.22 506.003C1307.37 511.53 1306.79 529.28 1304.65 534.572L1290.06 534.217C1290.03 534.012 1290.04 533.801 1289.98 533.601C1288.87 529.319 1235.18 469.916 1230.1 467.17C1230.46 468.047 1230.78 468.933 1231 469.856C1232.67 476.718 1232.82 528.899 1230.1 533.222L1208.98 532.86Z"/>
	<path fill="#5F7489" transform="scale(0.0385674 0.0385674)" d="M1307.15 418.498C1321.78 416.637 1357.3 420.009 1374.05 420.83C1374.55 421.625 1374.89 422.183 1375.14 423.098C1376.34 427.526 1376.26 437.056 1374.02 441.056Q1350.67 439.892 1327.3 439.359C1327.67 439.989 1327.99 440.628 1328.25 441.311C1330.37 446.825 1329.93 462.767 1327.44 467.957C1342.28 467.924 1357.16 468.522 1372.01 468.876C1372.34 469.381 1372.62 469.738 1372.85 470.283C1374.99 475.322 1373.89 483.28 1371.69 488.117L1370.44 488.048C1363.3 487.655 1335.21 485.062 1330.12 487.348C1329.43 487.659 1328.34 488.942 1327.72 489.492C1328.1 490.258 1328.45 491.056 1328.64 491.891C1329.91 497.303 1330.21 510.258 1327.39 514.959C1343.83 514.862 1360.3 515.504 1376.74 515.885C1376.99 516.305 1377.1 516.475 1377.33 516.951C1379.82 522.104 1378.73 530.559 1376.96 535.782C1353.48 534.557 1329.81 534.75 1306.29 534.546C1309.02 528.678 1309.32 427.688 1307.15 418.498Z"/>
	<defs>
		<linearGradient id="gradient_3" gradientUnits="userSpaceOnUse" x1="1123.0769" y1="410.78259" x2="1256.4839" y2="331.47852">
			<stop offset="0" stop-color="#45727D"/>
			<stop offset="1" stop-color="#698597"/>
		</linearGradient>
	</defs>
	<path fill="url(#gradient_3)" transform="scale(0.0385674 0.0385674)" d="M1045.59 336.705C1122.78 332.838 1204.84 356.762 1274.37 388.808C1283.25 392.898 1301.38 399.479 1308.16 405.882C1308.63 406.325 1309.06 406.789 1309.47 407.289C1296.64 405.687 1283.41 405.183 1270.49 404.833C1272.6 409.939 1270.3 416.379 1268.83 421.44C1266.93 419.03 1264.03 417.635 1261.1 416.842C1261.07 416.858 1252.74 415.749 1250.86 416.058C1225.46 394.51 1166.94 369.484 1134.59 361.296L1133.36 363.008C1129.99 362.221 1127.03 362.973 1124.65 361.352C1127.08 364.383 1131.19 365.211 1132.99 368.407L1132.18 370.099C1118.58 364.845 1104.79 360.712 1090.65 357.181C1092.64 357.116 1093.76 357.354 1095.43 356.231C1092.99 353.207 1086.32 351.496 1082.66 350.028C1076.57 346.823 1060.23 346.35 1053 345.726L1053.52 344.067C1056 343.737 1059.66 343.69 1061.96 342.889C1063.75 342.263 1064.09 341.331 1066.61 340.908C1061.33 337.993 1051.67 337.557 1045.59 336.705Z"/>
	<path fill="#E2E2E0" transform="scale(0.0385674 0.0385674)" d="M1133.59 356.936C1163.5 361.429 1220.48 390.739 1247.03 406.827C1250.61 408.996 1258.1 412.582 1260.48 415.658C1260.72 415.959 1260.96 416.533 1261.1 416.842C1261.07 416.858 1252.74 415.749 1250.86 416.058C1225.46 394.51 1166.94 369.484 1134.59 361.296L1133.96 360.825C1133.11 359.823 1132.41 358.817 1131.69 357.722L1133.59 356.936Z"/>
	<path fill="#E2E2E0" transform="scale(0.0385674 0.0385674)" d="M1066.61 340.908C1076.66 341.633 1127.6 351.348 1133.59 356.936L1131.69 357.722C1132.41 358.817 1133.11 359.823 1133.96 360.825L1134.59 361.296L1133.36 363.008C1129.99 362.221 1127.03 362.973 1124.65 361.352C1127.08 364.383 1131.19 365.211 1132.99 368.407L1132.18 370.099C1118.58 364.845 1104.79 360.712 1090.65 357.181C1092.64 357.116 1093.76 357.354 1095.43 356.231C1092.99 353.207 1086.32 351.496 1082.66 350.028C1076.57 346.823 1060.23 346.35 1053 345.726L1053.52 344.067C1056 343.737 1059.66 343.69 1061.96 342.889C1063.75 342.263 1064.09 341.331 1066.61 340.908Z"/>
	<path fill="#5F7489" transform="scale(0.0385674 0.0385674)" d="M1082.66 350.028C1099.9 351.044 1117.22 356.843 1133.96 360.825L1134.59 361.296L1133.36 363.008C1129.99 362.221 1127.03 362.973 1124.65 361.352C1127.08 364.383 1131.19 365.211 1132.99 368.407L1132.18 370.099C1118.58 364.845 1104.79 360.712 1090.65 357.181C1092.64 357.116 1093.76 357.354 1095.43 356.231C1092.99 353.207 1086.32 351.496 1082.66 350.028Z"/>
	<defs>
		<linearGradient id="gradient_4" gradientUnits="userSpaceOnUse" x1="489.9476" y1="463.03125" x2="706.6438" y2="398.57745">
			<stop offset="0" stop-color="#1E2021"/>
			<stop offset="1" stop-color="#494241"/>
		</linearGradient>
	</defs>
	<path fill="url(#gradient_4)" transform="scale(0.0385674 0.0385674)" d="M572.627 618.657C572.227 618.504 571.569 618.277 571.165 618.053C567.094 615.793 562.787 610.978 559.4 607.727C537.249 586.463 519.036 560.214 508.675 531.232C496.182 496.289 497.013 460.639 513.032 426.926C537.902 374.584 586.825 338.281 637.033 312.107C649.568 305.572 662.496 299.022 675.828 294.282L676.255 296.358C672.627 299.188 666.622 303.554 666.012 308.456C667.198 310.379 667.202 310.336 669.386 310.941C670.373 309.133 669.993 308.575 669.66 306.592C673.174 305.864 676.797 307.855 680.294 308.403C680.291 309.016 680.433 309.517 680.072 310.028L679.261 313.126C674.12 315.498 665.494 320.988 660.141 321.583C644.375 330.47 628.3 338.837 613.122 348.723C571.969 375.528 530.975 414.828 517.412 463.314C507.128 500.079 514.266 536.391 532.849 569.193C540.15 582.079 549.528 593.437 559.526 604.297C563.785 608.922 568.991 613.585 572.627 618.657Z"/>
	<path fill="#575453" transform="scale(0.0385674 0.0385674)" d="M659.161 313.49L660.122 313.305L660.103 314.897L659.533 315.007L659.161 313.49Z"/>
	<path fill="#575453" transform="scale(0.0385674 0.0385674)" d="M660.141 321.583L660.406 320.103C662.113 318.65 662.381 317.123 663.583 315.359C665.987 311.831 675.849 311.008 680.072 310.028L679.261 313.126C674.12 315.498 665.494 320.988 660.141 321.583Z"/>
	<defs>
		<linearGradient id="gradient_5" gradientUnits="userSpaceOnUse" x1="867.93323" y1="760.54242" x2="927.9823" y2="629.27014">
			<stop offset="0" stop-color="#222226"/>
			<stop offset="1" stop-color="#5F574E"/>
		</linearGradient>
	</defs>
	<path fill="url(#gradient_5)" transform="scale(0.0385674 0.0385674)" d="M592.342 626.555C603.29 631.914 613.747 638.292 624.531 643.981Q653.017 659.067 682.796 671.407C789.223 715.194 925.144 733.995 1039.46 732.891Q1074.49 732.576 1109.41 729.836C1120.61 729.001 1132.21 727.102 1143.4 726.893L1146.74 728.849C1146.98 729.813 1147.06 731.076 1147.76 731.782L1149.13 731.743L1150.52 735.181L1149.48 736.394C1145.27 736.418 1140.47 734.824 1136.76 736.538L1135.6 739.501C1134.27 739.033 1132.7 738.465 1131.26 738.55C1126.76 738.818 1121.94 740.475 1117.4 741.14C1107.6 742.577 1097.7 743.405 1087.84 744.331C1080.57 745.014 1067.84 744.307 1061.34 747.079C1055.26 748.748 1046.57 747.935 1040.12 747.959C907.338 748.452 767.276 724.142 648.829 662.047C632.627 653.553 604.844 638.96 592.342 626.555Z"/>
	<defs>
		<linearGradient id="gradient_6" gradientUnits="userSpaceOnUse" x1="1129.0605" y1="703.58673" x2="1526.0963" y2="614.57336">
			<stop offset="0" stop-color="#5E5650"/>
			<stop offset="1" stop-color="#A2A09C"/>
		</linearGradient>
	</defs>
	<path fill="url(#gradient_6)" transform="scale(0.0385674 0.0385674)" d="M1500.74 573.933C1505.13 574.754 1506.67 578.265 1510.67 579.773C1514.26 577.836 1516.77 574.763 1519.46 571.775L1520.26 572.017C1519.26 584.173 1487.35 615.154 1477.9 623.189C1403.29 686.66 1294.2 719.107 1199.17 734.401C1180.57 737.393 1161.58 740.703 1142.75 741.707L1142.65 740.96C1140.89 739.315 1137.99 739.688 1135.6 739.501L1136.76 736.538C1140.47 734.824 1145.27 736.418 1149.48 736.394L1150.52 735.181L1149.13 731.743L1147.76 731.782C1147.06 731.076 1146.98 729.813 1146.74 728.849L1143.4 726.893C1211.26 718.348 1278.37 706.159 1342.23 680.806C1392.04 661.032 1444.56 634.229 1482.95 596.18C1489.1 590.085 1497.3 581.906 1500.74 573.933Z"/>
	<defs>
		<linearGradient id="gradient_7" gradientUnits="userSpaceOnUse" x1="846.02277" y1="489.79309" x2="985.62024" y2="448.6073">
			<stop offset="0" stop-color="#10304A"/>
			<stop offset="1" stop-color="#304A62"/>
		</linearGradient>
	</defs>
	<path fill="url(#gradient_7)" transform="scale(0.0385674 0.0385674)" d="M854.913 403.746C863.334 409.223 871.643 420.09 878.726 427.467Q897.844 447.57 917.543 467.105Q948.47 437.903 979.737 409.064C978.92 450.115 979.456 491.2 979.174 532.26L955.612 532.233L955.553 508.25L955.473 462.081C943.594 475.013 930.539 487.281 917.56 499.114Q898.135 479.84 879.07 460.21L879.157 531.838L854.828 531.189C856.038 488.807 855.085 446.16 854.913 403.746Z"/>
	<defs>
		<linearGradient id="gradient_8" gradientUnits="userSpaceOnUse" x1="1091.3038" y1="380.52682" x2="1157.0137" y2="227.73483">
			<stop offset="0" stop-color="#655E5B"/>
			<stop offset="1" stop-color="#B4B1AD"/>
		</linearGradient>
	</defs>
	<path fill="url(#gradient_8)" transform="scale(0.0385674 0.0385674)" d="M820.397 252.45Q841.475 248.531 862.705 245.543Q883.935 242.555 905.276 240.503Q926.617 238.452 948.028 237.341Q969.438 236.23 990.877 236.062C1141.86 235.144 1312.53 271.57 1438.05 359.026C1454.42 370.434 1478.55 390.447 1489.47 406.754L1489.04 408.101C1486.33 401.975 1476.08 394.409 1470.96 390.113C1342.68 282.389 1132.22 247.681 969.044 253.409Q924.047 255.355 879.36 260.968C865.286 262.757 851.245 265.722 837.123 266.958C832.658 266.886 827.527 267.425 824.355 263.573C822.409 261.211 823.067 258.957 823.223 256.14C823.965 255.229 823.788 254.779 823.873 253.638L820.397 252.45Z"/>
	<path fill="#575453" transform="scale(0.0385674 0.0385674)" d="M827.265 256.669C829.549 257.594 831.52 260.72 833.092 262.606C830.768 262.778 830.497 262.811 828.511 261.628L827.265 256.669Z"/>
	<path fill="#39526B" transform="scale(0.0385674 0.0385674)" d="M988.898 408.824C1007.28 409.367 1033.9 407.731 1051.16 412.928C1061.32 415.984 1070.52 422.114 1075.47 431.738C1078.77 438.145 1080.03 446.069 1077.67 452.991C1075.27 460.035 1069.32 465.795 1062.8 469.088Q1063.82 469.37 1064.81 469.728Q1065.8 470.087 1066.77 470.52Q1067.73 470.954 1068.66 471.459Q1069.58 471.965 1070.47 472.541Q1071.35 473.116 1072.19 473.757Q1073.03 474.399 1073.82 475.102Q1074.61 475.806 1075.34 476.568Q1076.07 477.329 1076.74 478.145C1082.22 484.743 1085.71 493.614 1084.81 502.266C1084.3 507.148 1082.97 512.314 1079.01 515.503C1078.82 518.434 1076.13 520.929 1074.08 522.86C1056.79 539.096 1010.85 533.373 989.02 532.836L988.898 408.824Z"/>
	<path fill="#E2E2E0" transform="scale(0.0385674 0.0385674)" d="M1011.96 429.679C1019.46 429.715 1027.13 429.513 1034.6 430.125C1041.03 430.652 1048.51 432.34 1052.82 437.569C1054.73 439.895 1056.37 443.651 1055.86 446.698C1055.27 450.221 1053.35 452.476 1050.56 454.516L1050.15 455.502C1042.79 462.044 1021.72 459.158 1012.14 458.842L1011.96 429.679Z"/>
	<path fill="#E2E2E0" transform="scale(0.0385674 0.0385674)" d="M1012.44 478.677C1023.89 478.839 1037.06 477.925 1048.15 480.884C1052.8 482.123 1057.57 484.454 1060 488.82C1061.82 492.104 1062.11 496.583 1060.95 500.135C1059.81 503.615 1057.52 505.686 1054.32 507.246C1053.94 507.904 1054 507.897 1053.34 508.496C1045.88 515.212 1022.13 512.294 1012.39 511.855C1012.19 500.812 1012.4 489.724 1012.44 478.677Z"/>
	<path fill="#092239" transform="scale(0.0385674 0.0385674)" d="M596.558 397.892C619.654 398.569 648.47 396.895 670.608 402.609C683.157 405.848 695.348 412.62 701.958 424.167C707.329 433.55 708.48 445.587 705.503 455.934C701.635 469.379 692.151 476.664 680.585 483.213C695.421 499.646 709.707 516.657 724.135 533.453L703.5 532.964L689.806 532.627Q671.554 510.799 652.726 489.465C642.997 489.906 633.108 489.382 623.367 489.224Q623.476 510.709 623.903 532.189Q610.119 531.942 596.362 531.049L596.558 397.892Z"/>
	<path fill="#E2E2E0" transform="scale(0.0385674 0.0385674)" d="M623.366 420.74C638.36 420.981 661.106 418.502 673.363 428.793C677.708 432.44 680.58 437.924 680.968 443.603C681.436 450.442 677.971 455.687 673.694 460.651C660.784 470.526 639.037 467.158 623.729 466.729C623.348 451.415 623.466 436.06 623.366 420.74Z"/>
	<path fill="#092239" transform="scale(0.0385674 0.0385674)" d="M713.283 450.768C719.262 432.592 730.333 418.639 747.566 409.914C764.623 401.278 784.314 400.246 802.394 406.265C819.067 411.816 833.688 423.974 841.468 439.821C848.963 455.088 850.478 474.879 844.836 490.974C839.251 506.907 826.641 520.515 811.396 527.685C794.461 535.65 773.997 536.195 756.482 529.807C739.269 523.53 725.003 511.606 717.217 494.822C712.64 484.956 711.732 474.939 710.632 464.283C711.306 459.749 712.347 455.256 713.283 450.768Z"/>
	<path fill="#E2E2E0" transform="scale(0.0385674 0.0385674)" d="M772.53 424.239C782.497 423.4 792.389 424.602 801.265 429.504C811.374 435.086 818.451 444.748 821.532 455.803C824.868 467.774 823.569 481.288 817.371 492.131C811.133 503.043 801.676 508.55 789.947 511.86C779.045 513.85 768.167 512.488 758.576 506.667C748.614 500.62 741.879 490.652 739.127 479.409C736.156 467.275 737.476 453.807 744.217 443.124C750.806 432.68 760.755 427.012 772.53 424.239Z"/>
</svg>
