<?xml version="1.0" encoding="utf-8" ?>
<svg xmlns="http://www.w3.org/2000/svg" xmlns:xlink="http://www.w3.org/1999/xlink" width="240" height="120">
	<path fill="#D6D6D6" transform="scale(0.117188 0.117188)" d="M0 0L2046.25 0C2048.75 3.75313 2047.99 9.76244 2047.99 14.1208L2048.02 767.612L2048.01 954.147C2048.01 967.073 2049.66 1011.74 2047.62 1020.8C2047.36 1021.98 2046.85 1022.96 2046.25 1024L0 1024L0 0Z"/>
	<path fill="#202221" transform="scale(0.117188 0.117188)" d="M1526.67 113.41C1533.87 113.068 1547.46 110.674 1553.27 114.917C1555.9 120.055 1551.9 129.616 1557.88 131.52C1561.98 132.822 1566.85 132.6 1570.65 130.508C1573.16 129.126 1576.34 125.565 1577.25 122.856C1577.53 122.016 1577.48 122.016 1577.51 121.265C1583.92 123.345 1593.03 126.849 1596.37 133.232C1597.32 135.049 1597.74 137.385 1597.09 139.371C1595.87 143.089 1591.69 145.584 1588.58 147.546C1592.17 151.089 1597.07 155.218 1597.36 160.605C1597.36 160.667 1597.35 160.728 1597.35 160.789C1602.84 159.74 1608.47 158.899 1613.76 157.062C1616.59 159.252 1621.92 165.707 1622.2 169.351C1622.46 172.85 1620.8 175.797 1618.39 178.19C1614.78 181.779 1607.66 185.347 1605.73 189.959C1605.77 192.645 1606.1 194.612 1608.11 196.552C1611.54 199.863 1621.94 201.635 1622.41 206.526C1622.67 209.179 1620.37 214.438 1618.58 216.38C1618.38 216.595 1618.17 216.797 1617.97 217.005C1630.48 225.015 1648.9 251.728 1652.49 266.481C1652.82 267.834 1652.93 269.213 1652.93 270.602C1642.98 255.433 1629.39 226.316 1610.09 222.46C1606.2 221.683 1603.07 222.582 1599.43 223.914Q1596.55 227.287 1593.79 230.757C1607.24 247.352 1611.01 269.483 1628.71 283.358C1635.32 288.543 1642.94 292.309 1650.63 295.618C1657.16 298.43 1677.15 303.246 1680.99 308.157C1659.36 311.007 1638.25 291.005 1619.92 285.638C1642.97 299.569 1660.12 329.747 1666.4 355.358C1669.39 367.554 1672.75 390.15 1667.17 401.807C1667.07 402.017 1666.97 402.23 1666.88 402.442C1679.06 399.158 1705.89 381.978 1713.5 381.725C1709.19 389.906 1620.54 435.241 1608.33 439.585L1607.72 439.135C1604.4 436.709 1600.39 435.688 1596.29 436.32C1586.25 437.871 1561.63 455.629 1555.64 464.318C1554.97 465.297 1554.46 466.357 1554.04 467.465C1554.81 469.931 1555.41 470.799 1557.76 472.028C1567.66 477.206 1581.09 476.364 1591.26 472.766C1602.21 468.891 1612.61 463.4 1623.46 459.245Q1633.65 455.327 1644.01 451.899Q1654.36 448.47 1664.88 445.54Q1675.39 442.609 1686.03 440.182Q1696.67 437.756 1707.41 435.839C1699.82 442.684 1647.25 451.544 1630.62 462.448C1617.88 470.797 1608.38 483.687 1596.91 493.655C1575.14 512.585 1549.91 528.339 1524.57 542.045C1354.91 633.782 1082.04 684.132 886.701 695.152Q840.589 697.487 794.418 697.464Q748.247 697.441 702.137 695.061C600.758 689.83 449.897 668.635 378.106 588.611C367.926 577.264 358.937 564.105 353.388 549.84L349.476 540.098C336.454 506.446 340.75 470.851 355.226 438.267C393.594 351.906 506.187 298.252 589.757 266.36Q627.483 252.313 665.969 240.507Q704.455 228.701 743.568 219.177Q770.82 212.303 798.255 206.205Q825.691 200.107 853.289 194.79Q880.887 189.473 908.624 184.94Q936.362 180.408 964.217 176.665Q992.071 172.922 1020.02 169.97Q1047.97 167.018 1075.99 164.861Q1104.02 162.703 1132.09 161.341Q1160.16 159.98 1188.26 159.415Q1208.6 158.821 1228.94 159.457C1240.61 159.872 1254.03 162.076 1265.54 159.977C1268.31 159.471 1270.98 158.528 1272.25 155.795C1274.27 151.457 1272.4 145.462 1270.63 141.384C1269.19 138.083 1267.25 134.188 1264.53 131.737C1271.95 130.215 1297.94 125.34 1302.22 118.915C1302.32 118.761 1302.38 118.583 1302.47 118.418C1308.6 123.98 1312.93 132.12 1313.25 140.512C1313.28 141.406 1313.23 142.188 1313.13 143.077C1323.06 142.282 1332.95 141.569 1342.89 142.7C1348.28 137.388 1352.32 129.272 1352.51 121.603C1352.54 120.306 1352.28 119.385 1351.74 118.208C1361.41 120.015 1380.89 121.926 1387.08 130.279C1389.06 132.945 1389.56 136.568 1388.89 139.766C1387.69 145.515 1384.87 152.623 1380.02 156.123C1389 158.371 1399.59 164.532 1404.48 172.554C1405.08 173.543 1405.6 174.569 1406.11 175.612C1416.53 172.408 1425.95 169.004 1433.54 160.726C1440.01 164.878 1448.66 173.854 1450.33 181.563C1451.16 185.436 1450.49 188.99 1448.31 192.296C1445.12 197.13 1438.2 200.074 1432.89 201.831C1445.21 204.486 1458.8 208.633 1470.38 201.301C1473.53 199.311 1475.67 197.056 1476.4 193.303C1476.7 191.737 1475.9 189.589 1475.04 188.264C1471.98 183.55 1464.76 181.284 1459.51 180.533C1459.35 180.51 1459.19 180.493 1459.03 180.473C1464.31 176.13 1467.41 168.419 1468.06 161.702C1468.25 159.658 1468.28 157.715 1467.69 155.726C1471.57 156.781 1479.14 158.139 1481.38 161.715C1485.76 158.751 1490.54 155.497 1491.53 149.894C1492.05 147.002 1491.22 144.302 1489.41 142.035C1487.25 139.34 1484.1 137.765 1481.11 136.171C1488.12 133.115 1497.79 129.114 1500.86 121.603C1501.13 120.958 1501.08 121.111 1501.17 120.549L1501.97 121.174C1507.46 125.513 1512.6 135.24 1520.79 134.069C1523.43 133.691 1525.75 131.873 1527.21 129.708C1529.36 126.524 1529.96 122.897 1529.22 119.146C1528.83 117.201 1527.82 115.007 1526.67 113.41Z"/>
	<path fill="#4C4C54" transform="scale(0.117188 0.117188)" d="M1465.48 224.5L1466.12 224.445C1471.96 223.967 1481.86 221.911 1486.63 225.985C1487.62 228.73 1487.39 228.744 1486.2 231.451L1484.93 232.076C1479.63 232.563 1470.65 226.656 1465.48 224.5Z"/>
	<path fill="#D6D6D6" transform="scale(0.117188 0.117188)" d="M1632.87 334.498L1636.43 334.063C1638.85 335.148 1640.56 336.636 1642.07 338.796C1643.73 341.173 1643.99 343.577 1643.45 346.394C1641.6 348.739 1641.2 348.719 1638.28 349.512C1635.05 348.328 1631.01 342.479 1628.69 339.788C1630.62 338.194 1632.25 337.059 1632.87 334.498Z"/>
	<path fill="#D6D6D6" transform="scale(0.117188 0.117188)" d="M1591.94 248.498C1593.49 248.184 1594.81 248.251 1596.37 248.374C1597.82 249.471 1599.06 250.653 1600.2 252.066C1605.16 258.211 1614.83 271.847 1614.01 279.885C1611.65 275.013 1605.92 272.337 1601.28 270.072C1599.95 265.209 1575.09 251.746 1569.72 247.997C1576.16 248.625 1585.52 253.448 1591.34 250.767L1591.94 248.498Z"/>
	<path fill="#4C4C54" transform="scale(0.117188 0.117188)" d="M1430.32 206.5C1440.26 205.776 1452.41 207.391 1461.45 211.823C1463.98 213.064 1466.27 214.367 1467.25 217.143C1466.55 219.975 1466.33 220.447 1464.28 222.503C1463.68 223.213 1462.91 223.479 1462.09 223.904C1453.12 223.464 1443.2 220.434 1435.73 215.379C1432.14 212.953 1431.07 210.658 1430.32 206.5Z"/>
	<path fill="#4C4C54" transform="scale(0.117188 0.117188)" d="M1557.44 253.499C1563.05 252.746 1566.51 252.767 1571.85 254.876C1602.68 267.027 1642.92 305.377 1656.03 335.944C1662.34 350.659 1670.4 389.409 1663.87 404.552C1662.79 407.036 1662.07 407.97 1659.59 408.959C1657.11 407.323 1657.21 406.212 1656.42 403.45C1659.31 396.52 1653.17 389.214 1653.6 381.913C1653.61 381.732 1653.63 381.552 1653.64 381.371C1654.01 375.384 1658.14 371.133 1659.64 365.558C1660.31 363.085 1660.36 359.702 1659.11 357.395C1657.09 353.672 1652.35 351.341 1649.79 347.893C1645.38 341.963 1642.49 334.042 1638.77 327.572C1621.61 297.693 1582.21 264.884 1548.72 255.748C1551.64 255.145 1554.55 254.266 1557.44 253.499Z"/>
	<path fill="#00937F" transform="scale(0.117188 0.117188)" d="M1532.43 117.5C1536.4 117.189 1541.71 116.22 1545.56 117.181C1547.14 117.575 1549.77 118.997 1550.62 120.421C1553.02 124.436 1552.05 129.299 1550.93 133.572C1556.46 134.546 1562.97 135.39 1567.7 138.572C1567.83 138.502 1567.96 138.436 1568.08 138.363C1568.29 138.241 1568.49 138.107 1568.7 137.987C1573.13 135.435 1574.49 131.604 1577.99 128.291C1579.35 127.005 1580.69 126.826 1582.54 127.128C1585.37 127.589 1588.01 130.208 1589.37 132.602C1590.77 135.074 1591.52 138.073 1590.61 140.859C1589.34 144.712 1585.09 146.563 1581.74 148.23C1583.8 149.317 1585.5 150.576 1587.19 152.179C1590.47 155.298 1594.5 159.601 1594.65 164.387C1599.65 163.979 1605.65 161.352 1610.57 162.723C1612.95 163.389 1616.36 166.658 1617.56 168.851C1618.87 171.258 1618.44 172.139 1617.79 174.631C1614.51 178.599 1609.34 180.304 1604.73 182.318C1595.94 202.562 1613.96 200 1617.45 209.458C1617.9 213.852 1615.31 218.347 1612.66 221.704C1607.98 220.004 1602.65 219.362 1597.77 218.393C1597.32 222.886 1593.61 226.222 1590.66 229.303C1590.45 232.644 1592.3 234.059 1593.7 237C1594.79 239.294 1595.09 241.097 1594.04 243.468C1592.99 245.861 1591.48 247.148 1589.09 248.049C1584.27 248.253 1581.45 246.359 1577.2 244.427C1566.33 247.536 1555.46 250.923 1544.42 253.361C1543.29 257.446 1540.57 261.024 1537.39 263.738C1537.13 264.648 1536.56 265.297 1536.02 266.059Q1534.89 266.225 1533.75 266.34C1519.46 267.746 1522.83 251.215 1514.43 244.303C1507 242.525 1502.46 251.522 1495.46 254.246C1493.53 250.875 1487.93 249.071 1484.48 247.477C1485.58 246.531 1486.49 245.473 1487.34 244.3C1490.48 239.948 1492.68 234.93 1491.62 229.461C1490.78 225.063 1487.69 221.976 1484.1 219.606L1469.95 220.649C1470.75 215.531 1468.03 210.92 1468.5 206.478C1468.85 203.077 1479.86 198.998 1481.89 193.492C1481.95 191.967 1481.94 190.498 1481.17 189.13C1477.84 183.195 1470.22 179.986 1464.07 178.316C1469.02 172.969 1467.82 166.522 1471.73 161.36C1472.25 160.674 1473.51 160.75 1474.35 160.626C1477.65 161.972 1480.2 164.073 1482.97 166.274C1486.92 163.753 1490.71 160.099 1493.27 156.168C1495.25 153.123 1496.52 149.247 1495.55 145.627C1494.32 141.02 1490.22 138.818 1486.34 136.708C1492.13 134.437 1497.64 131.623 1500.75 126.021C1501.54 126.416 1502.31 126.846 1503.04 127.342C1507.23 130.184 1511.31 134.028 1512.29 139.175C1518.03 138.189 1527.05 137.545 1530.83 132.702C1534.34 128.207 1533.13 122.687 1532.43 117.5Z"/>
	<path fill="#D6D6D6" transform="scale(0.117188 0.117188)" d="M1530.08 152.5C1542.97 151.675 1554.72 151.836 1565.9 159.366Q1566.74 159.931 1567.55 160.536Q1568.35 161.142 1569.13 161.788Q1569.91 162.434 1570.65 163.118Q1571.39 163.801 1572.1 164.522Q1572.81 165.242 1573.48 165.997Q1574.15 166.752 1574.79 167.539Q1575.42 168.327 1576.01 169.145Q1576.6 169.963 1577.15 170.81Q1577.7 171.657 1578.21 172.531Q1578.72 173.404 1579.18 174.302Q1579.64 175.2 1580.06 176.12Q1580.48 177.04 1580.85 177.98Q1581.22 178.92 1581.54 179.877Q1581.86 180.834 1582.14 181.806Q1582.41 182.778 1582.64 183.763Q1582.86 184.747 1583.04 185.742C1584.78 195.676 1582.59 206.331 1576.63 214.527C1570.54 222.922 1561.1 228.013 1550.95 229.504C1545.76 232.431 1539.15 232.664 1533.37 231.812C1523.88 230.412 1515.09 223.622 1509.54 216.045C1502.76 206.778 1499.75 195.405 1501.64 184.023C1504.79 165.14 1516.12 162.794 1529.56 152.887L1530.08 152.5Z"/>
	<path fill="#00937F" transform="scale(0.117188 0.117188)" d="M1564.97 299.938C1571.15 300.056 1579.34 299.722 1585.18 301.684C1587.3 304.69 1588.34 308.537 1589.55 311.99L1589.91 315.609L1589.56 316.744C1592.8 321.546 1603.18 320.308 1606.55 326.454C1607.49 326.184 1608.4 325.869 1609.3 325.472C1614.34 323.229 1620.06 319.825 1622.13 314.46C1624.89 316.073 1627.56 318.328 1629.72 320.679C1631.85 322.993 1633.31 326.075 1632.99 329.281C1632.52 334.043 1627.93 336.989 1624.44 339.56C1627.9 342.927 1629.72 347.412 1633.01 350.569C1637.18 354.577 1644.01 353.168 1649.38 352.955C1652.4 354.953 1655.68 359.025 1656.59 362.571C1655.02 370.165 1648.57 369.011 1644.22 373.975C1645.03 379.955 1642.85 386.38 1643.82 392.049C1644.46 395.719 1653.32 397.595 1655.16 402.391C1655.85 404.208 1655.66 406.108 1654.83 407.847C1650.46 416.933 1641.96 410.697 1636.85 415.251C1634.86 417.02 1633.1 420.344 1631.3 422.451C1625.12 429.685 1617.14 432.439 1608.46 435.424C1605.94 434.307 1603.49 433.507 1600.77 432.996C1585.46 430.122 1578.36 443.5 1567.21 450.944C1565.24 452.264 1562.44 453.923 1560.02 453.435C1559.02 450.724 1557.97 448.188 1556.62 445.628C1550.64 441.636 1541.74 439.876 1534.72 438.512C1532.6 444.906 1527.77 448.695 1522.17 451.991C1518.58 439.805 1504.52 449.607 1515.82 428.409C1517.26 425.701 1518.26 422.604 1517.72 419.506C1516.83 414.394 1511.25 408.501 1507.02 405.741C1501.56 407.298 1495.93 407.959 1490.32 408.758C1490.56 407.191 1490.8 405.586 1490.8 403.998C1490.79 399.227 1488.83 394.92 1485.48 391.604C1489.22 390.91 1493.36 390.353 1496.88 388.876C1500.61 387.307 1503.91 384.245 1505.4 380.428C1506.73 377.028 1506.34 373.221 1504.77 369.972C1501.16 362.536 1494.89 360.467 1487.65 357.92C1490.35 355.974 1492.54 354.039 1494.4 351.252C1496.1 348.723 1497.39 345.75 1496.78 342.671C1502.71 344.741 1507.55 346.747 1512.05 351.246C1515.95 348.71 1519.71 344.915 1522.65 341.314C1525.48 337.84 1527.48 333.225 1526.76 328.674C1525.94 323.479 1521.28 319.974 1517.28 317.151C1522.33 315.059 1529.67 312.223 1532.1 307.027C1532.67 307.369 1533.21 307.729 1533.74 308.121C1538.43 311.578 1542.62 316.4 1543.53 322.276C1549.15 321.532 1555.6 321.159 1560.79 318.783C1563.85 317.386 1566.82 315.547 1567.84 312.113C1568.96 308.305 1566.89 303.207 1564.97 299.938Z"/>
	<path fill="#D6D6D6" transform="scale(0.117188 0.117188)" d="M1562.06 337.5C1577.24 336.654 1591.46 336.974 1604.44 346.223Q1605.37 346.897 1606.27 347.617Q1607.17 348.337 1608.03 349.1Q1608.9 349.864 1609.72 350.669Q1610.54 351.475 1611.33 352.32Q1612.11 353.165 1612.85 354.048Q1613.59 354.931 1614.28 355.85Q1614.98 356.768 1615.63 357.72Q1616.28 358.672 1616.88 359.655Q1617.48 360.638 1618.03 361.649Q1618.58 362.661 1619.08 363.699Q1619.58 364.736 1620.03 365.797Q1620.47 366.859 1620.87 367.941Q1621.26 369.023 1621.6 370.123Q1621.95 371.223 1622.23 372.339Q1622.52 373.455 1622.75 374.584Q1622.98 375.712 1623.15 376.851Q1623.33 378.009 1623.46 379.174Q1623.58 380.339 1623.65 381.509Q1623.72 382.679 1623.73 383.851Q1623.74 385.023 1623.69 386.194Q1623.64 387.365 1623.53 388.532Q1623.42 389.699 1623.25 390.859Q1623.09 392.019 1622.86 393.169Q1622.64 394.32 1622.36 395.457Q1622.08 396.595 1621.74 397.717Q1621.4 398.84 1621.01 399.944Q1620.61 401.048 1620.17 402.131Q1619.72 403.214 1619.22 404.273Q1618.72 405.332 1618.16 406.365Q1617.61 407.398 1617 408.402Q1616.4 409.406 1615.75 410.379Q1615.09 411.351 1614.39 412.29C1607.04 421.957 1596.28 427.817 1584.34 429.496C1579.84 432.022 1572.47 431.802 1567.46 431.306C1555.7 430.141 1544.31 422.593 1537.06 413.511Q1536.3 412.561 1535.59 411.575Q1534.88 410.588 1534.22 409.568Q1533.56 408.547 1532.95 407.494Q1532.34 406.441 1531.79 405.36Q1531.23 404.278 1530.73 403.17Q1530.23 402.061 1529.79 400.93Q1529.34 399.798 1528.95 398.645Q1528.57 397.492 1528.24 396.322Q1527.91 395.151 1527.64 393.965Q1527.37 392.78 1527.16 391.582Q1526.95 390.385 1526.8 389.178Q1526.65 387.971 1526.56 386.759Q1526.47 385.546 1526.44 384.33Q1526.41 383.115 1526.45 381.899Q1526.48 380.684 1526.57 379.471Q1526.67 378.259 1526.82 377.053C1530.35 349.471 1544.42 351.231 1561.62 337.855C1561.77 337.739 1561.92 337.618 1562.06 337.5Z"/>
	<path fill="#4C4C54" transform="scale(0.117188 0.117188)" d="M349.476 540.098L351.311 540.156C352.575 535.189 347.228 523.481 346.362 517.572Q345.407 510.75 345.203 503.865Q344.999 496.979 345.549 490.113C351.409 414.078 416.902 358.835 478.2 322.404C652.354 218.897 964.803 166.808 1169.77 164.035C1184.4 163.837 1248.14 161.105 1258.75 163.899C1258.95 163.953 1259.15 164.015 1259.35 164.074C1259.89 165.633 1260.13 165.698 1259.36 167.174C1257.29 171.158 1252.32 174.483 1248.28 176.243C1246.38 172.792 1240.33 169.419 1236.64 168.326C1232.12 166.986 1225.29 167.276 1221.15 169.65C1218.67 171.068 1216.61 173.14 1214.06 174.401C1194.47 177.586 1174.07 175.873 1154.26 176.384Q1100.99 177.583 1047.9 182.236C865.023 199.274 496.2 262.111 387.055 413.797C365.674 443.512 353.433 478.545 359.571 515.327C366.194 555.02 393.354 587.004 425.35 609.699C577.575 717.669 928.135 685.687 1107.49 654.816C1242.43 631.59 1396.91 594.518 1517.71 530.586C1533.09 522.45 1548.35 513.72 1562.49 503.576C1574.85 494.718 1586.03 483.968 1598.58 475.507C1605.12 471.094 1612.47 468.001 1619.42 464.288L1619.92 465.709C1614.18 476.695 1601.9 485.49 1592.29 493.225C1523.84 548.29 1435.93 582.438 1352.93 608.469Q1335.2 613.882 1317.37 618.958Q1299.54 624.033 1281.62 628.769Q1263.69 633.505 1245.68 637.899Q1227.67 642.294 1209.58 646.346Q1191.49 650.397 1173.33 654.105Q1155.16 657.812 1136.93 661.174Q1118.7 664.536 1100.41 667.551Q1082.12 670.566 1063.77 673.233Q1045.42 675.9 1027.03 678.218Q1008.64 680.536 990.204 682.504Q971.77 684.473 953.302 686.091Q934.834 687.709 916.339 688.976Q897.843 690.242 879.327 691.158Q860.811 692.073 842.281 692.637Q823.751 693.2 805.214 693.412Q786.676 693.624 768.138 693.483C661.759 692.686 542.258 684.713 446.204 634.465C420.814 621.183 396.869 604.31 377.936 582.635C373.58 577.648 369.528 572.503 365.937 566.936C363.294 562.839 358.55 551.267 354.92 549.131L353.388 549.84L349.476 540.098Z"/>
	<path fill="#00937F" transform="scale(0.117188 0.117188)" d="M1310.91 146.906C1320.75 146.734 1331.56 147.303 1341.08 144.677C1345.95 143.333 1350.89 140.98 1353.38 136.347C1355.05 133.254 1355.69 126.583 1354.77 123.22C1363.23 124.547 1374.41 125.845 1381.12 131.585C1383.5 133.622 1385.17 136.548 1385.27 139.727C1385.46 145.38 1380.78 153.427 1377.03 157.457C1384.96 160.674 1393.07 165.092 1399.27 171.063C1401.64 173.335 1404.74 176.326 1404.82 179.801Q1405.35 179.688 1405.88 179.554C1413.58 177.62 1427.82 172.822 1432.04 165.822C1436.38 168.234 1442.66 174.126 1444.86 178.586C1446.39 181.682 1446.89 184.949 1445.73 188.26C1442.83 196.511 1431.55 200.793 1424.29 204.329C1426.7 207.033 1428.11 210.533 1429.13 213.958C1431.94 223.363 1433.86 237.377 1429.12 246.262C1435.59 246.822 1447.44 247.114 1452.76 250.813C1454.77 252.214 1455.56 254.698 1455.84 257.046C1456.72 264.164 1454.42 273.647 1450.14 279.401C1445.96 280.601 1439.4 277.511 1434.91 277.088C1430.97 276.718 1428.74 277.629 1425.74 280.058L1424.47 281.26C1417.43 283.968 1412.14 300.509 1403.68 306.405C1408.15 309.838 1413.6 314.155 1416.15 319.285C1417.58 322.151 1418.17 325.588 1417.07 328.659C1413.99 337.258 1401.34 342.91 1393.53 346.492C1393.58 345.793 1393.62 345.74 1393.48 344.934C1392.25 337.955 1383.49 329.738 1377.6 326.172C1367.18 333.025 1355.95 334.271 1343.88 335.633C1345.89 340.254 1347.33 346.328 1347.21 351.376C1347.13 354.663 1345.96 357.833 1343.43 360.03C1336.13 366.362 1319.66 363.002 1310.65 362.162C1312.89 359.51 1313.86 356.326 1314.78 353.05C1316.02 348.671 1316.79 344.693 1314.34 340.508C1308.47 330.47 1289.78 327.787 1279.3 325.203C1279.33 326.036 1279.36 326.709 1279.08 327.51C1276.57 334.774 1267.47 342.428 1260.64 345.587C1260.56 345.302 1260.49 345.013 1260.4 344.732C1257.81 336.914 1243.79 327.461 1236.54 324.242C1240.64 322.192 1245.2 318.349 1247.91 314.653C1250.67 310.883 1251.67 305.98 1250.96 301.398C1249.58 292.601 1241.56 279.672 1234.32 274.5C1226.16 276.945 1217.06 277.526 1208.61 278.551C1209.56 276.732 1209.93 274.484 1209.99 272.449C1210.2 265.198 1208.87 254.965 1203.76 249.478C1210.48 249.09 1219.83 249.171 1226.05 246.757C1228.65 245.745 1230.11 244.2 1231.17 241.643C1234.21 234.31 1237.78 219.529 1234.36 212.031C1230.41 203.381 1217.67 200.4 1209.43 197.423C1210.69 196.4 1211.88 195.282 1212.89 194.005C1217.8 187.786 1223.19 177.989 1222.16 169.931C1231.56 171.459 1241.88 173.912 1249.66 179.558C1257.63 175.481 1269.18 167.464 1274.32 160.156C1276.79 156.654 1278.14 152.654 1277.32 148.364C1276.3 143.003 1272.15 137.693 1267.8 134.604C1277.57 133.2 1293.23 130.246 1301.02 124.058C1302.22 125.091 1303.27 126.26 1304.26 127.497C1308.71 133.063 1311.71 139.688 1310.91 146.906Z"/>
	<path fill="#D6D6D6" transform="scale(0.117188 0.117188)" d="M1321.29 170.499Q1323.11 170.298 1324.94 170.181Q1326.77 170.065 1328.61 170.034Q1330.44 170.002 1332.27 170.056Q1334.1 170.11 1335.93 170.249Q1337.76 170.388 1339.58 170.612Q1341.4 170.836 1343.21 171.144Q1345.02 171.452 1346.81 171.844Q1348.6 172.235 1350.37 172.71Q1352.14 173.184 1353.89 173.741Q1355.64 174.297 1357.35 174.934Q1359.07 175.571 1360.76 176.287Q1362.45 177.003 1364.1 177.797Q1365.76 178.59 1367.37 179.46Q1368.98 180.33 1370.56 181.273Q1372.13 182.217 1373.66 183.233Q1375.18 184.248 1376.66 185.334Q1378.04 186.365 1379.37 187.463Q1380.69 188.561 1381.97 189.723Q1383.24 190.885 1384.45 192.109Q1385.66 193.332 1386.81 194.614Q1387.96 195.895 1389.05 197.232Q1390.14 198.569 1391.16 199.958Q1392.18 201.347 1393.12 202.785Q1394.07 204.222 1394.95 205.704Q1395.83 207.187 1396.63 208.711Q1397.43 210.235 1398.16 211.797Q1398.89 213.359 1399.54 214.954Q1400.19 216.55 1400.75 218.176Q1401.32 219.802 1401.81 221.453Q1402.3 223.105 1402.71 224.779Q1403.11 226.453 1403.44 228.145Q1403.76 229.837 1404 231.543Q1404.23 233.229 1404.39 234.925Q1404.54 236.621 1404.6 238.322Q1404.67 240.023 1404.66 241.725Q1404.64 243.428 1404.54 245.127Q1404.44 246.827 1404.25 248.519Q1404.07 250.212 1403.8 251.893Q1403.54 253.575 1403.19 255.241Q1402.84 256.907 1402.41 258.554Q1401.97 260.201 1401.46 261.824Q1400.95 263.448 1400.36 265.044Q1399.77 266.641 1399.1 268.206Q1398.43 269.771 1397.68 271.302Q1396.94 272.832 1396.11 274.324Q1395.29 275.815 1394.4 277.265Q1393.51 278.714 1392.54 280.118Q1391.58 281.522 1390.55 282.876C1377.5 299.913 1358.11 308.547 1337.23 311.309C1336.92 311.433 1336.49 311.626 1336.15 311.712C1323.66 314.86 1306.64 309.638 1295.7 303.713Q1294.1 302.848 1292.54 301.905Q1290.98 300.961 1289.47 299.942Q1287.95 298.923 1286.49 297.83Q1285.04 296.738 1283.63 295.574Q1282.23 294.411 1280.89 293.18Q1279.54 291.949 1278.26 290.653Q1276.98 289.357 1275.76 287.999Q1274.54 286.642 1273.4 285.225Q1272.25 283.809 1271.17 282.338Q1270.1 280.867 1269.09 279.345Q1268.09 277.822 1267.17 276.252Q1266.24 274.682 1265.39 273.069Q1264.55 271.455 1263.78 269.801Q1263.01 268.147 1262.33 266.458Q1261.64 264.768 1261.04 263.047Q1260.44 261.326 1259.93 259.577Q1259.47 257.971 1259.08 256.345Q1258.7 254.718 1258.4 253.075Q1258.1 251.431 1257.88 249.775Q1257.66 248.119 1257.52 246.453Q1257.38 244.788 1257.32 243.118Q1257.27 241.448 1257.29 239.777Q1257.32 238.106 1257.43 236.439Q1257.54 234.772 1257.73 233.112Q1257.92 231.451 1258.19 229.803Q1258.46 228.154 1258.82 226.521Q1259.17 224.888 1259.6 223.274Q1260.04 221.661 1260.55 220.07Q1261.06 218.48 1261.66 216.917Q1262.25 215.354 1262.91 213.822Q1263.58 212.29 1264.32 210.793Q1265.06 209.296 1265.88 207.837C1278.35 185.378 1297.68 177.26 1321.29 170.499Z"/>
	<path fill="#202221" transform="scale(0.117188 0.117188)" d="M1320.75 185.499C1337.37 184.063 1354.32 186.374 1367.78 197.113C1379 206.065 1387.84 219.565 1389.43 233.965C1391.02 248.368 1386.41 262.698 1377.46 273.979Q1376.56 275.115 1375.61 276.205Q1374.65 277.296 1373.64 278.338Q1372.64 279.38 1371.58 280.372Q1370.52 281.363 1369.42 282.302Q1368.32 283.241 1367.17 284.124Q1366.02 285.007 1364.83 285.833Q1363.64 286.659 1362.41 287.426Q1361.18 288.192 1359.91 288.898Q1358.64 289.603 1357.35 290.246Q1356.05 290.888 1354.72 291.466Q1353.39 292.044 1352.03 292.557Q1350.68 293.069 1349.3 293.514Q1347.92 293.959 1346.52 294.336Q1345.12 294.713 1343.7 295.021Q1342.29 295.329 1340.86 295.567Q1339.43 295.805 1337.99 295.973C1331.76 297.315 1323.86 296.621 1317.63 295.375C1288.72 289.594 1286.27 271.789 1272.72 251.787C1273.14 250.636 1273.5 249.478 1273.75 248.277C1274.84 242.964 1275 234.437 1272.01 229.707C1275.24 226.256 1277.71 221.23 1280.21 217.19C1291.12 199.551 1300.41 190.933 1320.75 185.499Z"/>
	<path fill="#4C4C54" transform="scale(0.117188 0.117188)" d="M1317.35 189.499C1329.56 188.416 1340.71 188.998 1352.34 193.238C1355.14 194.258 1358.71 195.522 1360.04 198.372C1357.99 199.77 1356.49 199.126 1354.13 198.851C1341.11 194.778 1325.67 194.956 1312.13 192.655L1312.3 191.671L1317.35 189.499Z"/>
	<path fill="#D6D6D6" transform="scale(0.117188 0.117188)" d="M1300.75 196.498C1318.38 194.012 1350.44 200.141 1368.12 204.745C1374.12 208.153 1379.43 216.769 1381.8 223.106Q1382.23 224.264 1382.59 225.441Q1382.96 226.618 1383.27 227.812Q1383.58 229.006 1383.83 230.214Q1384.08 231.422 1384.27 232.64Q1384.46 233.859 1384.59 235.086Q1384.72 236.313 1384.79 237.544Q1384.86 238.776 1384.87 240.009Q1384.87 241.243 1384.82 242.475Q1384.77 243.707 1384.65 244.936Q1384.54 246.164 1384.36 247.385Q1384.19 248.606 1383.95 249.817Q1383.72 251.027 1383.42 252.225Q1383.13 253.423 1382.77 254.604Q1382.42 255.786 1382.01 256.949Q1381.59 258.111 1381.12 259.252Q1380.66 260.393 1380.13 261.509C1374.93 272.557 1365.54 282.234 1353.97 286.501C1353.75 286.718 1353.55 286.966 1353.29 287.152C1346.36 292.268 1329.54 293.562 1321.28 291.566C1306.38 287.968 1292.73 279.328 1284.61 266.119C1275.2 250.811 1274.62 230.311 1285.68 215.696C1289.25 210.966 1299.61 202.335 1300.68 196.961C1300.71 196.808 1300.73 196.652 1300.75 196.498Z"/>
	<path fill="#D6D6D6" transform="scale(0.117188 0.117188)" d="M1587.09 478.609C1586.98 479.339 1586.9 479.896 1586.54 480.554C1582.14 488.689 1566.73 496.841 1558.95 501.765C1497.59 540.549 1432.46 567.014 1363.58 589.42C1152.1 658.217 897.363 694.494 676.118 676.59C602.903 670.665 523.454 658.914 457.285 625.101C417.937 604.995 381.15 573.864 367.302 530.52C357.288 499.176 361.442 466.182 376.463 437.178C423.694 345.981 565.716 290.147 657.847 260.748C817.285 209.871 987.143 184.776 1154.15 179.285C1163.86 178.966 1207.41 175.463 1213.89 178.812C1214.46 180.403 1214.83 181.044 1214.54 182.749C1213.61 188.275 1209.46 195.725 1204.76 198.898C1204.55 199.039 1204.34 199.177 1204.13 199.316C1211.73 201.119 1220.99 203.952 1226.81 209.327C1230.42 212.672 1232.29 216.929 1232.47 221.849C1232.69 228.138 1228.89 238.277 1224.65 242.934C1219.1 245.909 1207.23 246.144 1200.7 247.147C1202.22 248.629 1203.07 250.341 1203.8 252.303C1206.85 260.557 1208.12 274.706 1204.5 282.619C1213.56 281.427 1222.68 280.379 1231.65 278.571C1236.13 281.047 1239.95 286.518 1242.64 290.839C1245.81 295.924 1247.38 302.306 1245.87 308.201C1243.99 315.584 1237.65 321.583 1231.31 325.433C1231.49 325.487 1231.66 325.534 1231.83 325.595C1241.91 329.173 1256.99 341.404 1261.93 351.005C1262.63 350.639 1263.3 350.252 1263.97 349.828C1270.6 345.618 1278.81 337.077 1280.58 329.241C1289.64 331.35 1300.09 333.331 1307.33 339.564C1310.32 342.132 1312.6 345.517 1312.77 349.547C1312.98 354.727 1309.99 361.181 1306.48 364.872C1316.99 365.219 1335.84 370.424 1344.96 364.786C1347.35 363.308 1348.9 360.791 1349.53 358.09C1350.89 352.3 1349.87 344.057 1346.74 338.991C1356.48 337.299 1368.31 335.919 1376.48 330.029C1378.31 331.075 1379.84 332.328 1381.41 333.725C1386.31 338.077 1392.91 344.478 1393.32 351.374C1401.94 347.799 1415.31 339.958 1420.35 331.953C1422.24 328.957 1422.99 325.724 1422.12 322.248C1420.5 315.73 1412.47 309.463 1406.89 306.279C1410.28 304.331 1413.08 301.949 1415.76 299.108C1420.28 294.319 1424.67 288.096 1424.47 281.26L1425.74 280.058C1434.26 280.925 1443.83 281.256 1451.82 284.492C1458.24 277.432 1460.64 263.276 1460.35 253.801C1460.28 251.469 1459.74 249.725 1458.35 247.815C1452.43 243.158 1442.32 248.125 1434.91 242.194C1434.93 235.065 1436.28 226.12 1431.48 220.236C1443.23 221.811 1476.39 227.162 1483.54 237.449C1484.31 238.56 1484.99 240.658 1484.66 242.011C1483.94 244.984 1481.79 247.411 1479.34 249.178C1485.7 251.446 1491.65 253.831 1496.81 258.363C1497.05 258.257 1497.28 258.154 1497.52 258.046C1503.69 255.193 1505.83 248.475 1513.29 248.77C1515.86 250.207 1518.02 253.163 1518.73 256.059C1519.7 259.976 1518.16 264.238 1516.34 267.673C1522.97 268.273 1536.19 271.628 1541.45 267.08C1543.52 265.296 1544.74 261.177 1544.9 258.511C1544.94 257.882 1544.89 257.814 1544.79 257.282C1562.43 263.039 1610.15 291.356 1618.14 307.953C1618.81 309.339 1619.01 310.756 1619.06 312.285C1617.06 317.314 1611.99 319.546 1607.44 321.873C1602.27 318.163 1596.24 316.225 1589.91 315.609L1589.55 311.99C1591.07 309.682 1592.08 307.462 1591.55 304.629C1591.13 302.376 1589.66 300.607 1587.82 299.326C1583.24 296.123 1575.57 295.426 1570.21 296.398C1559.84 298.276 1565.78 306.965 1560.78 313.616C1558.8 316.247 1555.85 317.669 1552.63 318.13C1550.99 318.365 1546.92 319.022 1545.57 317.818C1544.57 316.922 1543.27 313.006 1542.44 311.627C1540.08 307.683 1536.47 304.939 1532.86 302.218C1528.41 309.503 1520.11 312.983 1512.62 316.269C1515.62 317.973 1518.74 320.721 1520.56 323.676C1522.42 326.682 1522.88 330.328 1522.02 333.741C1520.67 339.127 1515.56 343.628 1510.96 346.393C1506.27 342.356 1501.05 340.507 1495.23 338.811C1495.26 340.289 1494.92 341.671 1494.5 343.081C1492.57 349.522 1487.33 356.016 1481.46 359.223Q1484.18 359.827 1486.82 360.741C1491.92 362.53 1501.24 367.752 1503.38 372.961C1504.06 374.618 1503.98 376.185 1503.25 377.8C1500.28 384.384 1490.21 387.422 1483.89 389.631C1485.95 396.284 1490.01 406.059 1487.02 412.807C1493.01 412.273 1499.21 411.992 1504.59 409.076C1507.38 410.963 1510.06 413.532 1511.67 416.533C1513.4 419.742 1513.85 423.686 1512.79 427.182C1511.02 433.006 1506.33 436.388 1501.2 439.104C1507.24 441.401 1513.7 445.415 1518.28 449.99C1520.28 451.997 1522.67 454.587 1522.68 457.578C1525.87 455.815 1528.55 453.915 1531.09 451.275C1533.39 448.874 1535.6 445.99 1535.5 442.517C1540.44 443.502 1549.99 445.286 1553.68 448.9C1559.46 454.568 1549.59 461.367 1549.39 467.987C1549.9 470.119 1550.6 471.689 1552.21 473.203C1560.19 480.735 1576.99 479.066 1587.09 478.609Z"/>
	<path fill="#4C4C54" transform="scale(0.117188 0.117188)" d="M1193.5 495.497C1197.14 494.882 1200.84 494.594 1204.31 496.131C1208.33 497.914 1212.18 501.62 1213.69 505.8C1214.68 508.503 1214.64 511.482 1213.23 514.029C1211.22 517.64 1207.93 519.018 1204.14 520.012C1203.06 521.331 1200.3 522.448 1198.63 522.762C1196.93 523.079 1195.75 523.028 1194.32 522.101C1191.36 520.178 1190.11 517.048 1189.4 513.725C1187.75 505.911 1189.16 502.08 1193.5 495.497Z"/>
	<path fill="#4C4C54" transform="scale(0.117188 0.117188)" d="M1252.85 447.038C1241.01 469.81 1254.34 495.706 1243.05 517.975L1241.51 518.466C1241.32 518.214 1241.12 517.968 1240.94 517.71C1239.05 515.055 1238.47 509.724 1238.2 506.473C1237.25 495.277 1238.25 483.746 1238.21 472.505C1238.17 460.32 1236.28 447.443 1238.47 435.415C1239.05 432.201 1239.44 430.543 1242.13 428.689L1243.67 429.136C1246.39 433.148 1245.33 438.037 1247.56 442.21L1248.9 441.896L1252.85 447.038Z"/>
	<path fill="#202221" transform="scale(0.117188 0.117188)" d="M1248.9 441.896C1260.47 434.089 1272.36 426.735 1287 429.455C1295.09 430.957 1302.01 435.723 1306.51 442.575C1316.23 457.367 1314.66 477.065 1314.57 493.982C1314.53 500.758 1315.1 508.162 1313.57 514.807C1313.06 516.996 1312.48 518.976 1310.52 520.264C1309.09 520.067 1308.32 520.271 1307.41 519.046C1296.42 504.214 1321.94 443.979 1284.63 436.994C1276.52 435.477 1268.57 437.089 1261.86 441.768C1258.95 443.798 1256.39 446.209 1252.85 447.038L1248.9 441.896Z"/>
	<path fill="#4C4C54" transform="scale(0.117188 0.117188)" d="M1440.28 406.498C1440.94 406.449 1441.52 406.426 1442.18 406.479C1444.66 406.681 1446.8 407.333 1448.39 409.374C1452.22 414.276 1448.71 423.582 1448.17 429.193C1454.36 432.275 1464.83 427.572 1472.02 431.089C1473.42 431.776 1473.36 432.429 1473.85 433.824C1467.34 440.05 1453.18 434.437 1448.22 438.039C1448.46 442.805 1450.12 447.259 1450.17 452.204C1450.34 468.342 1445.73 487.446 1450.64 503.007C1451.63 506.14 1454.26 511.298 1457.42 512.675C1460.58 514.055 1464.27 513.083 1467.23 511.717C1469.06 511.355 1470.2 511.401 1472.02 511.811L1472.87 513.604C1472.29 515.504 1471.45 516.643 1469.81 517.796C1466.04 520.453 1460.44 521.643 1455.9 520.796C1425.64 515.147 1449.56 455.178 1437.69 437.398C1433.24 436.262 1429.46 438.289 1425.88 434.46L1425.98 432.025C1429.7 428.745 1434.96 430.618 1439 427.436C1441.44 421.087 1440.43 413.232 1440.28 406.498Z"/>
	<path fill="#202221" transform="scale(0.117188 0.117188)" d="M1091.28 213.495C1096.03 213.032 1103.09 211.732 1107.12 214.822C1102.3 220.716 1030.5 224.146 1017.15 225.478C897.929 237.373 779.391 259.214 666.227 299.154C663.499 300.372 659.483 301.72 656.581 300.861L656.485 299.406C664.614 290.013 696.785 283.567 709.986 279.807Q740.176 270.913 770.692 263.214Q801.208 255.514 832.003 249.021Q862.799 242.528 893.826 237.251Q924.853 231.974 956.063 227.922C1001 222.024 1046.43 219.629 1091.28 213.495Z"/>
	<path fill="#4C4C54" transform="scale(0.117188 0.117188)" d="M753.024 426.033L754.555 427.152C756.111 434.999 755.009 444.723 754.963 452.79C752.163 452.477 749.322 452.185 746.502 452.233C741.35 452.322 736.533 454.768 733.06 458.542C721.113 471.525 725.609 504.455 726.188 520.729C718.339 520.499 710.387 522.059 702.761 519.908C700.58 517.5 701.073 516.298 700.988 513.121L701.055 428.584C706.035 428.027 711.259 427.175 716.265 427.216C718.799 427.236 721.241 427.928 722.954 429.917C725.908 433.346 725.179 438.298 725.035 442.523C733.782 434.302 741.408 429.348 753.024 426.033Z"/>
	<path fill="#00937F" transform="scale(0.117188 0.117188)" d="M455.204 445.399C473.797 451.363 492.075 458.174 510.391 464.929C502.333 484.296 496.682 504.841 489.993 524.727L483.69 543.489C478.879 537.996 474.18 532.412 470 526.416C452.641 501.516 450.082 474.667 455.204 445.399Z"/>
	<path fill="#4C4C54" transform="scale(0.117188 0.117188)" d="M1141.51 408.497C1146.76 408.048 1152.29 407.83 1156.94 410.662C1159.14 411.996 1160.9 413.752 1161.41 416.378C1162.13 420.186 1159.89 425.239 1157.73 428.304L1158.66 428.285C1165.33 428.156 1172.42 427.009 1177.6 431.987C1179.53 435.634 1179.4 438.761 1178.22 442.633C1175.52 451.53 1165.94 445.602 1160.39 448.458C1160.85 455.677 1161.2 462.992 1160.85 470.222C1160.54 476.626 1159.01 483.839 1159.98 490.187C1161.99 503.28 1172.1 497.696 1179.48 503.116C1180.44 504.629 1180.85 505.864 1180.77 507.646C1180.6 511.92 1180.11 514.567 1176.95 517.501C1176.06 519.49 1174.47 520.355 1172.52 521.103C1161 525.521 1145.77 515.317 1135.57 510.631C1136.82 508.223 1136.95 505.57 1137.09 502.907C1137.68 492.402 1138.7 457.514 1133.48 449.528C1131.35 446.264 1126.93 447.662 1125.09 445.448C1121.79 441.465 1123 435.252 1123.49 430.484C1126.19 428.148 1130.35 429.136 1133.9 427.938C1137.91 423.214 1135.24 417.178 1135.55 411.462C1137.4 408.869 1138.5 409.112 1141.51 408.497Z"/>
	<path fill="#00937F" transform="scale(0.117188 0.117188)" d="M512.424 489.385C529.885 497.64 548.006 503.12 566.388 508.903C555.714 527.044 548.228 548.118 540.171 567.518C538.716 568.99 537.291 569.672 535.237 569.964C521.197 571.957 500.487 555.913 489.897 548.298Q501.371 518.922 512.424 489.385Z"/>
	<path fill="#00937F" transform="scale(0.117188 0.117188)" d="M616.991 504.187C628.656 507.604 639.936 513.746 650.877 518.984L649.345 521.341C629.264 551.994 604.963 564.782 569.635 572.137L546.825 572.019C556.844 551.946 565.953 531.368 575.361 511C587.667 515.045 599.488 520.393 611.371 525.518C612.329 518.316 614.912 511.147 616.991 504.187Z"/>
	<path fill="#202221" transform="scale(0.117188 0.117188)" d="M1363.48 429.5Q1365.54 429.306 1367.61 429.214C1381.39 428.577 1394.25 430.703 1404.76 440.455C1411.88 447.053 1418.03 457.94 1418.22 467.825C1418.28 471.019 1417.61 473.691 1415.27 476.001C1410.73 480.496 1345.44 478.283 1335.54 478.254C1347.78 487.292 1345.19 505.794 1363.13 512.833C1368.38 514.895 1378.99 515.066 1384.19 512.751C1393.24 510.164 1403.49 499.964 1411.6 499.945L1412.2 501.411C1410.44 505.065 1407.98 508.122 1404.94 510.817C1396.22 518.559 1383.94 521.864 1372.43 521.107C1361.12 520.363 1350.5 515.877 1342.98 507.273C1334.23 497.275 1330.41 483.593 1331.4 470.462C1332.52 455.438 1338.74 444.318 1351.71 436.768C1355.43 434.6 1359.95 432.663 1363.16 429.795C1363.27 429.699 1363.37 429.598 1363.48 429.5Z"/>
	<path fill="#D6D6D6" transform="scale(0.117188 0.117188)" d="M1362.98 437.5C1372.42 436.988 1385.41 435.982 1393.51 441.712C1399.99 446.294 1408.58 455.512 1409.62 463.771C1409.98 466.659 1409.17 467.734 1407.56 469.932C1401.6 473.48 1389.67 471.38 1382.75 471.019C1368.25 470.22 1353.49 471.203 1338.93 470.626L1338.45 469.943C1343.34 462.95 1344.64 452.948 1350.46 447.11C1353.99 443.561 1358.68 441.063 1362.55 437.859L1362.98 437.5Z"/>
	<path fill="#202221" transform="scale(0.117188 0.117188)" d="M399.908 482.565C403.604 485.496 406.396 513.25 408.684 520.206C413.902 536.07 423.923 550.477 435.786 562.1C465.928 591.629 509.092 607.043 549.206 617.693C691.42 655.448 866.008 646.985 1011.82 628.22Q1061.24 621.394 1110.39 612.834C1126.08 610.068 1144.11 604.279 1159.92 604.336C1162.26 604.344 1163.66 604.184 1165.37 605.887L1163.41 607.816C1163.26 607.929 1163.13 608.058 1162.98 608.155C1155.37 612.933 1094.24 621.362 1080.91 623.347C1047.47 628.325 1014.13 633.995 980.517 637.722C956.974 640.333 933.17 641.672 909.542 643.353C794.391 651.547 668.379 654.355 555.951 625.582C503.295 612.107 441.831 588.588 412.961 539.563C403.331 523.209 394.964 501.634 399.908 482.565Z"/>
	<path fill="#00937F" transform="scale(0.117188 0.117188)" d="M622.515 391.241C622.663 391.289 622.811 391.332 622.958 391.384C636.578 396.169 647.599 414.956 653.588 427.186C667.701 456.01 665.287 481.081 655.081 510.68L635.741 502.456L592.37 482.772C599.387 469.272 605.107 454.981 611.154 441.02L601.414 437.142Q612.379 414.382 622.515 391.241Z"/>
	<path fill="#4C4C54" transform="scale(0.117188 0.117188)" d="M800.446 427.1C811.002 426.483 821.367 427.986 830.821 432.914Q831.846 433.444 832.843 434.024Q833.841 434.605 834.808 435.234Q835.775 435.863 836.71 436.54Q837.644 437.217 838.544 437.94Q839.444 438.662 840.306 439.429Q841.169 440.195 841.992 441.004Q842.815 441.813 843.597 442.661Q844.379 443.51 845.118 444.396Q845.857 445.283 846.55 446.205Q847.244 447.128 847.89 448.083Q848.537 449.039 849.135 450.026Q849.733 451.013 850.282 452.028Q850.83 453.044 851.327 454.085Q851.824 455.127 852.268 456.192Q852.712 457.256 853.103 458.342Q853.494 459.428 853.83 460.532Q854.176 461.632 854.467 462.747Q854.758 463.862 854.992 464.991Q855.227 466.12 855.405 467.258Q855.583 468.397 855.703 469.544Q855.824 470.69 855.888 471.841Q855.951 472.992 855.956 474.145Q855.962 475.297 855.91 476.449Q855.858 477.6 855.749 478.748Q855.639 479.895 855.472 481.036Q855.306 482.177 855.082 483.307Q854.858 484.438 854.578 485.556Q854.299 486.675 853.963 487.777Q853.628 488.88 853.238 489.965Q852.848 491.05 852.404 492.113Q851.96 493.177 851.463 494.218Q850.967 495.258 850.419 496.272C842.563 510.61 829.444 516.766 814.578 521.168C802.191 521.516 790.517 520.634 779.571 514.079Q778.58 513.488 777.619 512.85Q776.658 512.211 775.73 511.527Q774.801 510.842 773.907 510.112Q773.014 509.382 772.157 508.61Q771.3 507.837 770.482 507.024Q769.664 506.21 768.887 505.357Q768.11 504.504 767.376 503.615Q766.641 502.725 765.952 501.8Q765.262 500.875 764.619 499.917Q763.975 498.96 763.379 497.972Q762.783 496.984 762.237 495.968Q761.69 494.952 761.194 493.91Q760.698 492.868 760.254 491.804Q759.809 490.739 759.418 489.654Q759.026 488.569 758.688 487.465Q758.35 486.362 758.067 485.244Q757.79 484.135 757.568 483.014Q757.346 481.892 757.179 480.762Q757.013 479.631 756.903 478.493Q756.792 477.355 756.738 476.213Q756.684 475.072 756.686 473.929Q756.688 472.786 756.747 471.644Q756.806 470.502 756.921 469.365Q757.036 468.228 757.207 467.098Q757.378 465.967 757.605 464.847Q757.831 463.727 758.113 462.619Q758.394 461.511 758.73 460.418Q759.066 459.326 759.456 458.251Q759.845 457.177 760.287 456.122Q760.729 455.068 761.223 454.037Q761.717 453.006 762.26 452.001Q762.804 450.995 763.397 450.018C771.907 436.238 785.475 430.647 800.446 427.1Z"/>
	<path fill="#D6D6D6" transform="scale(0.117188 0.117188)" d="M801.766 449.216C805.081 449.048 808.827 449.179 812.045 450.01C818.555 451.69 824.516 455.778 827.795 461.733Q828.095 462.283 828.367 462.848Q828.64 463.413 828.883 463.99Q829.127 464.568 829.341 465.157Q829.555 465.746 829.74 466.345Q829.925 466.944 830.079 467.551Q830.233 468.159 830.357 468.773Q830.481 469.388 830.574 470.008Q830.667 470.628 830.728 471.251Q830.79 471.875 830.82 472.501Q830.851 473.127 830.85 473.754Q830.849 474.381 830.816 475.007Q830.784 475.633 830.72 476.257Q830.656 476.88 830.562 477.5Q830.467 478.119 830.341 478.733Q830.215 479.348 830.059 479.955Q829.903 480.562 829.716 481.16C826.831 490.365 820.546 494.695 812.487 498.97C807.658 499.155 802.957 499.426 798.329 497.756C791.872 495.425 786.524 490.869 783.725 484.548Q783.478 483.985 783.259 483.409Q783.04 482.834 782.85 482.249Q782.66 481.664 782.499 481.07Q782.339 480.476 782.208 479.875Q782.077 479.273 781.976 478.666Q781.875 478.059 781.805 477.448Q781.735 476.837 781.695 476.223Q781.655 475.609 781.646 474.993Q781.637 474.378 781.658 473.763Q781.68 473.148 781.732 472.535Q781.784 471.922 781.867 471.312Q781.949 470.702 782.062 470.097Q782.175 469.493 782.318 468.894Q782.461 468.296 782.633 467.705Q782.806 467.114 783.008 466.533Q783.21 465.952 783.44 465.381C787.023 456.623 793.532 452.758 801.766 449.216Z"/>
	<path fill="#00937F" transform="scale(0.117188 0.117188)" d="M553.314 367.362C575.261 364.2 597.28 373.879 615.556 384.988C607.531 400.905 600.336 417.293 592.884 433.487C573.362 424.486 553.976 415.185 534.22 406.701C530.95 415.459 527.223 424.089 523.702 432.751L514.126 456.488C495.704 448.99 476.496 443.523 458.005 436.154Q459.592 432.405 461.417 428.767Q463.243 425.129 465.3 421.616Q467.356 418.104 469.635 414.731Q471.915 411.358 474.407 408.14C494.154 383.126 522.258 371.068 553.314 367.362Z"/>
	<path fill="#4C4C54" transform="scale(0.117188 0.117188)" d="M913.929 426.216L914.433 426.213C928.449 426.17 936.062 432.41 945.511 441.821C947.016 440.351 948.55 438.898 950.169 437.555C958.923 430.296 969.063 426.31 980.511 427.485C988.552 428.31 995.701 431.793 1000.78 438.169C1014.67 455.59 1012.34 499.206 1009.9 520.16C1003.09 520.521 994.413 521.844 987.966 519.584C983.831 508.525 986.425 492.087 986.057 480.235C985.811 472.284 984.867 464.615 983.5 456.784C979.19 453.296 973.844 449.466 968.069 449.475C964.645 449.481 961.632 450.927 959.324 453.427C948.568 465.081 950.606 489.381 951.066 504.176L951.909 520.178L926.788 520.257C927.859 503.116 931.539 472.486 923.03 457.528C921.147 454.217 918.484 451.777 914.752 450.791C908.181 449.056 902.273 452.85 896.873 456.072C889.007 475.689 891.873 499.545 891.939 520.362Q879.848 520.261 867.772 519.648C863.376 494.209 866.257 455.378 866.614 429.063C871.369 428.785 884.851 426.697 888.099 430.54C890.141 432.954 889.308 435.306 892.447 437.174C900.158 435.134 905.583 428.519 913.521 426.324C913.657 426.287 913.793 426.252 913.929 426.216Z"/>
	<path fill="#4C4C54" transform="scale(0.117188 0.117188)" d="M1024.87 401.506C1030.22 401.125 1039.97 399.322 1044.72 402.306C1048.12 404.448 1049.38 409.601 1049.95 413.297C1051.14 421 1051.19 432.596 1046.43 439.036C1061.64 435.169 1069.54 423.638 1087.09 427.669C1098.05 430.189 1107.47 437.606 1113.39 447.051C1121.11 459.358 1123.18 474.866 1119.76 488.912C1117.97 496.234 1113.23 505.537 1106.6 509.505C1106.55 509.659 1106.51 509.818 1106.45 509.967C1104.7 514.079 1096.95 517.447 1092.99 518.785C1070.3 526.443 1070.4 520.337 1052.95 512.183C1050.91 511.231 1049.88 510.763 1047.75 511.616C1047.41 513.853 1046.99 515.841 1046.17 517.955C1041.03 522.49 1030.39 520.472 1023.9 520.152C1023.66 506.714 1021.78 405.621 1024.87 401.506Z"/>
	<path fill="#D6D6D6" transform="scale(0.117188 0.117188)" d="M1062.97 450.498C1070.76 449.524 1077.4 449.125 1084.46 453.116Q1085.04 453.446 1085.6 453.804Q1086.16 454.162 1086.7 454.548Q1087.24 454.935 1087.77 455.348Q1088.29 455.761 1088.79 456.2Q1089.29 456.639 1089.77 457.103Q1090.24 457.567 1090.7 458.054Q1091.15 458.541 1091.58 459.051Q1092.01 459.56 1092.41 460.091Q1092.81 460.622 1093.19 461.172Q1093.56 461.722 1093.91 462.29Q1094.25 462.859 1094.57 463.444Q1094.89 464.029 1095.17 464.63Q1095.46 465.231 1095.72 465.845Q1095.97 466.459 1096.2 467.086Q1096.42 467.712 1096.62 468.349Q1096.81 468.986 1096.97 469.632C1098.62 476.021 1098.16 483 1094.72 488.733C1091.41 494.262 1086.36 497.647 1080.19 499.184C1077.6 500.845 1073.74 501.267 1070.72 501.235C1065.26 501.178 1060.87 498.995 1057.07 495.11Q1056.56 494.574 1056.07 494.013Q1055.58 493.453 1055.12 492.87Q1054.66 492.286 1054.23 491.681Q1053.8 491.076 1053.4 490.451Q1053 489.826 1052.63 489.183Q1052.26 488.539 1051.92 487.878Q1051.59 487.217 1051.28 486.541Q1050.97 485.864 1050.7 485.174Q1050.43 484.483 1050.19 483.781Q1049.95 483.078 1049.75 482.364Q1049.54 481.65 1049.37 480.928Q1049.2 480.205 1049.07 479.475Q1048.93 478.745 1048.83 478.009Q1048.73 477.273 1048.67 476.534Q1048.61 475.794 1048.58 475.052Q1048.55 474.31 1048.56 473.568C1048.7 462.128 1055.65 457.782 1062.97 450.498Z"/>
</svg>
